<mxfile host="drawio-plugin" modified="2023-06-21T20:59:48.101Z" agent="5.0 (Windows NT 6.2; Win64; x64) AppleWebKit/537.36 (KHTML, like Gecko) Chrome/89.0.4389.114 Safari/537.36" etag="690zj4wPBYdbmxUBgVuG" version="20.5.3" type="embed"><diagram id="23iRSUPoRavnBvh4doch" name="Page-1"><mxGraphModel dx="2407" dy="1733" grid="1" gridSize="10" guides="1" tooltips="1" connect="1" arrows="1" fold="1" page="1" pageScale="1" pageWidth="827" pageHeight="1169" math="0" shadow="0"><root><mxCell id="0"/><mxCell id="1" parent="0"/><mxCell id="79" value="" style="group;rounded=0;" parent="1" vertex="1" connectable="0"><mxGeometry x="370" y="190" width="1254" height="2110" as="geometry"/></mxCell><mxCell id="76" value="" style="rounded=0;whiteSpace=wrap;html=1;" parent="79" vertex="1"><mxGeometry x="-10" width="1208" height="2110" as="geometry"/></mxCell><mxCell id="78" value="&lt;b&gt;alt&lt;/b&gt;" style="rounded=0;whiteSpace=wrap;html=1;" parent="79" vertex="1"><mxGeometry x="-10" width="70" height="30" as="geometry"/></mxCell><mxCell id="81" value="[delivery != null]" style="text;html=1;align=center;verticalAlign=middle;whiteSpace=wrap;rounded=0;" parent="79" vertex="1"><mxGeometry x="10" y="30" width="90" height="30" as="geometry"/></mxCell><mxCell id="94" value="" style="group;rounded=0;" parent="79" vertex="1" connectable="0"><mxGeometry x="10" y="60" width="1244" height="2032" as="geometry"/></mxCell><mxCell id="89" value="" style="rounded=0;whiteSpace=wrap;html=1;" parent="94" vertex="1"><mxGeometry width="1175" height="2020" as="geometry"/></mxCell><mxCell id="91" value="&lt;b&gt;alt&lt;/b&gt;" style="rounded=0;whiteSpace=wrap;html=1;" parent="94" vertex="1"><mxGeometry x="0.9254385964912281" width="77.82786885245902" height="26.875000000000004" as="geometry"/></mxCell><mxCell id="93" value="[status = pending]" style="text;html=1;align=center;verticalAlign=middle;whiteSpace=wrap;rounded=0;" parent="94" vertex="1"><mxGeometry y="38.39" width="110" height="23.04" as="geometry"/></mxCell><mxCell id="101" value="" style="group;rounded=0;" parent="94" vertex="1" connectable="0"><mxGeometry x="14" y="61.43" width="1224" height="1948" as="geometry"/></mxCell><mxCell id="106" value="" style="group;rounded=0;" parent="101" vertex="1" connectable="0"><mxGeometry width="1236" height="1948" as="geometry"/></mxCell><mxCell id="102" value="`" style="rounded=0;whiteSpace=wrap;html=1;" parent="106" vertex="1"><mxGeometry x="0.93" width="1143.07" height="1910" as="geometry"/></mxCell><mxCell id="103" value="&lt;b&gt;alt&lt;/b&gt;" style="rounded=0;whiteSpace=wrap;html=1;" parent="106" vertex="1"><mxGeometry x="0.9289482909728309" width="78.12302840476431" height="36.17788461538462" as="geometry"/></mxCell><mxCell id="104" value="[count &amp;gt;= 0]" style="text;html=1;align=center;verticalAlign=middle;whiteSpace=wrap;rounded=0;" parent="106" vertex="1"><mxGeometry x="-15.217493785695595" y="36.17884615384616" width="110.41717126823981" height="31.015384615384615" as="geometry"/></mxCell><mxCell id="108" value="&lt;div style=&quot;text-align: start;&quot;&gt;&lt;span style=&quot;background-color: initial; font-size: 0px;&quot;&gt;&lt;font face=&quot;monospace&quot; color=&quot;rgba(0, 0, 0, 0)&quot;&gt;ww&lt;/font&gt;&lt;/span&gt;&lt;/div&gt;" style="rounded=0;whiteSpace=wrap;html=1;" parent="106" vertex="1"><mxGeometry x="10" y="67.19" width="1113" height="1798.81" as="geometry"/></mxCell><mxCell id="118" value="&lt;span style=&quot;color: rgba(0, 0, 0, 0); font-family: monospace; font-size: 0px; text-align: start;&quot;&gt;%3CmxGraphModel%3E%3Croot%3E%3CmxCell%20id%3D%220%22%2F%3E%3CmxCell%20id%3D%221%22%20parent%3D%220%22%2F%3E%3CmxCell%20id%3D%222%22%20value%3D%22%22%20style%3D%22rounded%3D0%3BwhiteSpace%3Dwrap%3Bhtml%3D1%3B%22%20vertex%3D%221%22%20parent%3D%221%22%3E%3CmxGeometry%20x%3D%22424.9345614035088%22%20y%3D%22500%22%20width%3D%22979.07%22%20height%3D%22230%22%20as%3D%22geometry%22%2F%3E%3C%2FmxCell%3E%3C%2Froot%3E%3C%2FmxGraphModel%3E&lt;/span&gt;&lt;span style=&quot;color: rgba(0, 0, 0, 0); font-family: monospace; font-size: 0px; text-align: start;&quot;&gt;%3CmxGraphModel%3E%3Croot%3E%3CmxCell%20id%3D%220%22%2F%3E%3CmxCell%20id%3D%221%22%20parent%3D%220%22%2F%3E%3CmxCell%20id%3D%222%22%20value%3D%22%22%20style%3D%22rounded%3D0%3BwhiteSpace%3Dwrap%3Bhtml%3D1%3B%22%20vertex%3D%221%22%20parent%3D%221%22%3E%3CmxGeometry%20x%3D%22424.9345614035088%22%20y%3D%22500%22%20width%3D%22979.07%22%20height%3D%22230%22%20as%3D%22geometry%22%2F%3E%3C%2FmxCell%3E%3C%2Froot%3E%3C%2FmxGraphModel%3E&lt;/span&gt;" style="rounded=0;whiteSpace=wrap;html=1;" parent="106" vertex="1"><mxGeometry x="15.991683168316824" y="118.57" width="425" height="200" as="geometry"/></mxCell><mxCell id="364" value="" style="rounded=0;whiteSpace=wrap;html=1;" parent="106" vertex="1"><mxGeometry x="320" y="440.57" width="610" height="319.43" as="geometry"/></mxCell><mxCell id="121" value="&lt;span style=&quot;color: rgba(0, 0, 0, 0); font-family: monospace; font-size: 0px; text-align: start;&quot;&gt;%3CmxGraphModel%3E%3Croot%3E%3CmxCell%20id%3D%220%22%2F%3E%3CmxCell%20id%3D%221%22%20parent%3D%220%22%2F%3E%3CmxCell%20id%3D%222%22%20value%3D%22%22%20style%3D%22rounded%3D0%3BwhiteSpace%3Dwrap%3Bhtml%3D1%3B%22%20vertex%3D%221%22%20parent%3D%221%22%3E%3CmxGeometry%20x%3D%22424.9345614035088%22%20y%3D%22500%22%20width%3D%22979.07%22%20height%3D%22230%22%20as%3D%22geometry%22%2F%3E%3C%2FmxCell%3E%3C%2Froot%3E%3C%2FmxGraphModel%3E&lt;/span&gt;&lt;span style=&quot;color: rgba(0, 0, 0, 0); font-family: monospace; font-size: 0px; text-align: start;&quot;&gt;%3CmxGraphModel%3E%3Croot%3E%3CmxCell%20id%3D%220%22%2F%3E%3CmxCell%20id%3D%221%22%20parent%3D%220%22%2F%3E%3CmxCell%20id%3D%222%22%20value%3D%22%22%20style%3D%22rounded%3D0%3BwhiteSpace%3Dwrap%3Bhtml%3D1%3B%22%20vertex%3D%221%22%20parent%3D%221%22%3E%3CmxGeometry%20x%3D%22424.9345614035088%22%20y%3D%22500%22%20width%3D%22979.07%22%20height%3D%22230%22%20as%3D%22geometry%22%2F%3E%3C%2FmxCell%3E%3C%2Froot%3E%3C%2FmxGraphModel%3E&lt;/span&gt;&lt;span style=&quot;color: rgba(0, 0, 0, 0); font-family: monospace; font-size: 0px; text-align: start;&quot;&gt;%3CmxGraphModel%3E%3Croot%3E%3CmxCell%20id%3D%220%22%2F%3E%3CmxCell%20id%3D%221%22%20parent%3D%220%22%2F%3E%3CmxCell%20id%3D%222%22%20value%3D%22%22%20style%3D%22rounded%3D0%3BwhiteSpace%3Dwrap%3Bhtml%3D1%3B%22%20vertex%3D%221%22%20parent%3D%221%22%3E%3CmxGeometry%20x%3D%22424.9345614035088%22%20y%3D%22500%22%20width%3D%22979.07%22%20height%3D%22230%22%20as%3D%22geometry%22%2F%3E%3C%2FmxCell%3E%3C%2Froot%3E%3C%2FmxGraphModel%3E&lt;/span&gt;&lt;span style=&quot;color: rgba(0, 0, 0, 0); font-family: monospace; font-size: 0px; text-align: start;&quot;&gt;%3CmxGraphModel%3E%3Croot%3E%3CmxCell%20id%3D%220%22%2F%3E%3CmxCell%20id%3D%221%22%20parent%3D%220%22%2F%3E%3CmxCell%20id%3D%222%22%20value%3D%22%22%20style%3D%22rounded%3D0%3BwhiteSpace%3Dwrap%3Bhtml%3D1%3B%22%20vertex%3D%221%22%20parent%3D%221%22%3E%3CmxGeometry%20x%3D%22424.9345614035088%22%20y%3D%22500%22%20width%3D%22979.07%22%20height%3D%22230%22%20as%3D%22geometry%22%2F%3E%3C%2FmxCell%3E%3C%2Froot%3E%3C%2FmxGraphModel%3E&lt;/span&gt;&lt;span style=&quot;color: rgba(0, 0, 0, 0); font-family: monospace; font-size: 0px; text-align: start;&quot;&gt;%3CmxGraphModel%3E%3Croot%3E%3CmxCell%20id%3D%220%22%2F%3E%3CmxCell%20id%3D%221%22%20parent%3D%220%22%2F%3E%3CmxCell%20id%3D%222%22%20value%3D%22%22%20style%3D%22rounded%3D0%3BwhiteSpace%3Dwrap%3Bhtml%3D1%3B%22%20vertex%3D%221%22%20parent%3D%221%22%3E%3CmxGeometry%20x%3D%22424.9345614035088%22%20y%3D%22500%22%20width%3D%22979.07%22%20height%3D%22230%22%20as%3D%22geometry%22%2F%3E%3C%2FmxCell%3E%3C%2Froot%3E%3C%2FmxGraphModel%3E&lt;/span&gt;&lt;span style=&quot;color: rgba(0, 0, 0, 0); font-family: monospace; font-size: 0px; text-align: start;&quot;&gt;%3CmxGraphModel%3E%3Croot%3E%3CmxCell%20id%3D%220%22%2F%3E%3CmxCell%20id%3D%221%22%20parent%3D%220%22%2F%3E%3CmxCell%20id%3D%222%22%20value%3D%22%22%20style%3D%22rounded%3D0%3BwhiteSpace%3Dwrap%3Bhtml%3D1%3B%22%20vertex%3D%221%22%20parent%3D%221%22%3E%3CmxGeometry%20x%3D%22424.9345614035088%22%20y%3D%22500%22%20width%3D%22979.07%22%20height%3D%22230%22%20as%3D%22geometry%22%2F%3E%3C%2FmxCell%3E%3C%2Froot%3E%3C%2FmxGraphModel%3E&lt;/span&gt;&lt;span style=&quot;color: rgba(0, 0, 0, 0); font-family: monospace; font-size: 0px; text-align: start;&quot;&gt;%3CmxGraphModel%3E%3Croot%3E%3CmxCell%20id%3D%220%22%2F%3E%3CmxCell%20id%3D%221%22%20parent%3D%220%22%2F%3E%3CmxCell%20id%3D%222%22%20value%3D%22%22%20style%3D%22rounded%3D0%3BwhiteSpace%3Dwrap%3Bhtml%3D1%3B%22%20vertex%3D%221%22%20parent%3D%221%22%3E%3CmxGeometry%20x%3D%22424.9345614035088%22%20y%3D%22500%22%20width%3D%22979.07%22%20height%3D%22230%22%20as%3D%22geometry%22%2F%3E%3C%2FmxCell%3E%3C%2Froot%3E%3C%2FmxGraphModel%3E&lt;/span&gt;&lt;span style=&quot;color: rgba(0, 0, 0, 0); font-family: monospace; font-size: 0px; text-align: start;&quot;&gt;%3CmxGraphModel%3E%3Croot%3E%3CmxCell%20id%3D%220%22%2F%3E%3CmxCell%20id%3D%221%22%20parent%3D%220%22%2F%3E%3CmxCell%20id%3D%222%22%20value%3D%22%22%20style%3D%22rounded%3D0%3BwhiteSpace%3Dwrap%3Bhtml%3D1%3B%22%20vertex%3D%221%22%20parent%3D%221%22%3E%3CmxGeometry%20x%3D%22424.9345614035088%22%20y%3D%22500%22%20width%3D%22979.07%22%20height%3D%22230%22%20as%3D%22geometry%22%2F%3E%3C%2FmxCell%3E%3C%2Froot%3E%3C%2FmxGraphModel%3E&lt;/span&gt;&lt;span style=&quot;color: rgba(0, 0, 0, 0); font-family: monospace; font-size: 0px; text-align: start;&quot;&gt;%3CmxGraphModel%3E%3Croot%3E%3CmxCell%20id%3D%220%22%2F%3E%3CmxCell%20id%3D%221%22%20parent%3D%220%22%2F%3E%3CmxCell%20id%3D%222%22%20value%3D%22%22%20style%3D%22rounded%3D0%3BwhiteSpace%3Dwrap%3Bhtml%3D1%3B%22%20vertex%3D%221%22%20parent%3D%221%22%3E%3CmxGeometry%20x%3D%22424.9345614035088%22%20y%3D%22500%22%20width%3D%22979.07%22%20height%3D%22230%22%20as%3D%22geometry%22%2F%3E%3C%2FmxCell%3E%3C%2Froot%3E%3C%2FmxGraphModel%3E&lt;/span&gt;&lt;span style=&quot;color: rgba(0, 0, 0, 0); font-family: monospace; font-size: 0px; text-align: start;&quot;&gt;%3CmxGraphModel%3E%3Croot%3E%3CmxCell%20id%3D%220%22%2F%3E%3CmxCell%20id%3D%221%22%20parent%3D%220%22%2F%3E%3CmxCell%20id%3D%222%22%20value%3D%22%22%20style%3D%22rounded%3D0%3BwhiteSpace%3Dwrap%3Bhtml%3D1%3B%22%20vertex%3D%221%22%20parent%3D%221%22%3E%3CmxGeometry%20x%3D%22424.9345614035088%22%20y%3D%22500%22%20width%3D%22979.07%22%20height%3D%22230%22%20as%3D%22geometry%22%2F%3E%3C%2FmxCell%3E%3C%2Froot%3E%3C%2FmxGraphModel%3E&lt;/span&gt;&lt;span style=&quot;color: rgba(0, 0, 0, 0); font-family: monospace; font-size: 0px; text-align: start;&quot;&gt;%3CmxGraphModel%3E%3Croot%3E%3CmxCell%20id%3D%220%22%2F%3E%3CmxCell%20id%3D%221%22%20parent%3D%220%22%2F%3E%3CmxCell%20id%3D%222%22%20value%3D%22%22%20style%3D%22rounded%3D0%3BwhiteSpace%3Dwrap%3Bhtml%3D1%3B%22%20vertex%3D%221%22%20parent%3D%221%22%3E%3CmxGeometry%20x%3D%22424.9345614035088%22%20y%3D%22500%22%20width%3D%22979.07%22%20height%3D%22230%22%20as%3D%22geometry%22%2F%3E%3C%2FmxCell%3E%3C%2Froot%3E%3C%2FmxGraphModel%3E&lt;/span&gt;&lt;span style=&quot;color: rgba(0, 0, 0, 0); font-family: monospace; font-size: 0px; text-align: start;&quot;&gt;%3CmxGraphModel%3E%3Croot%3E%3CmxCell%20id%3D%220%22%2F%3E%3CmxCell%20id%3D%221%22%20parent%3D%220%22%2F%3E%3CmxCell%20id%3D%222%22%20value%3D%22%22%20style%3D%22rounded%3D0%3BwhiteSpace%3Dwrap%3Bhtml%3D1%3B%22%20vertex%3D%221%22%20parent%3D%221%22%3E%3CmxGeometry%20x%3D%22424.9345614035088%22%20y%3D%22500%22%20width%3D%22979.07%22%20height%3D%22230%22%20as%3D%22geometry%22%2F%3E%3C%2FmxCell%3E%3C%2Froot%3E%3C%2FmxGraphModel%3E&lt;/span&gt;&lt;span style=&quot;color: rgba(0, 0, 0, 0); font-family: monospace; font-size: 0px; text-align: start;&quot;&gt;%3CmxGraphModel%3E%3Croot%3E%3CmxCell%20id%3D%220%22%2F%3E%3CmxCell%20id%3D%221%22%20parent%3D%220%22%2F%3E%3CmxCell%20id%3D%222%22%20value%3D%22%22%20style%3D%22rounded%3D0%3BwhiteSpace%3Dwrap%3Bhtml%3D1%3B%22%20vertex%3D%221%22%20parent%3D%221%22%3E%3CmxGeometry%20x%3D%22424.9345614035088%22%20y%3D%22500%22%20width%3D%22979.07%22%20height%3D%22230%22%20as%3D%22geometry%22%2F%3E%3C%2FmxCell%3E%3C%2Froot%3E%3C%2FmxGraphModel%3E&lt;/span&gt;&lt;span style=&quot;color: rgba(0, 0, 0, 0); font-family: monospace; font-size: 0px; text-align: start;&quot;&gt;%3CmxGraphModel%3E%3Croot%3E%3CmxCell%20id%3D%220%22%2F%3E%3CmxCell%20id%3D%221%22%20parent%3D%220%22%2F%3E%3CmxCell%20id%3D%222%22%20value%3D%22%22%20style%3D%22rounded%3D0%3BwhiteSpace%3Dwrap%3Bhtml%3D1%3B%22%20vertex%3D%221%22%20parent%3D%221%22%3E%3CmxGeometry%20x%3D%22424.9345614035088%22%20y%3D%22500%22%20width%3D%22979.07%22%20height%3D%22230%22%20as%3D%22geometry%22%2F%3E%3C%2FmxCell%3E%3C%2Froot%3E%3C%2FmxGraphModel%3E&lt;/span&gt;" style="rounded=0;whiteSpace=wrap;html=1;" parent="106" vertex="1"><mxGeometry x="22.99" y="193.44" width="407.01" height="121.56" as="geometry"/></mxCell><mxCell id="187" value="&lt;span style=&quot;color: rgba(0, 0, 0, 0); font-family: monospace; font-size: 0px; text-align: start;&quot;&gt;%3CmxGraphModel%3E%3Croot%3E%3CmxCell%20id%3D%220%22%2F%3E%3CmxCell%20id%3D%221%22%20parent%3D%220%22%2F%3E%3CmxCell%20id%3D%222%22%20value%3D%22%22%20style%3D%22rounded%3D0%3BwhiteSpace%3Dwrap%3Bhtml%3D1%3B%22%20vertex%3D%221%22%20parent%3D%221%22%3E%3CmxGeometry%20x%3D%22424.9345614035088%22%20y%3D%22500%22%20width%3D%22979.07%22%20height%3D%22230%22%20as%3D%22geometry%22%2F%3E%3C%2FmxCell%3E%3C%2Froot%3E%3C%2FmxGraphModel%3E&lt;/span&gt;&lt;span style=&quot;color: rgba(0, 0, 0, 0); font-family: monospace; font-size: 0px; text-align: start;&quot;&gt;%3CmxGraphModel%3E%3Croot%3E%3CmxCell%20id%3D%220%22%2F%3E%3CmxCell%20id%3D%221%22%20parent%3D%220%22%2F%3E%3CmxCell%20id%3D%222%22%20value%3D%22%22%20style%3D%22rounded%3D0%3BwhiteSpace%3Dwrap%3Bhtml%3D1%3B%22%20vertex%3D%221%22%20parent%3D%221%22%3E%3CmxGeometry%20x%3D%22424.9345614035088%22%20y%3D%22500%22%20width%3D%22979.07%22%20height%3D%22230%22%20as%3D%22geometry%22%2F%3E%3C%2FmxCell%3E%3C%2Froot%3E%3C%2FmxGraphModel%3E&lt;/span&gt;" style="rounded=0;whiteSpace=wrap;html=1;" parent="106" vertex="1"><mxGeometry x="25.991467644799606" y="250.08000000000004" width="130" height="45.99" as="geometry"/></mxCell><mxCell id="107" value="" style="group;rounded=0;" parent="106" vertex="1" connectable="0"><mxGeometry x="10" y="110" width="1226" height="625" as="geometry"/></mxCell><mxCell id="111" value="" style="group;rounded=0;" parent="107" vertex="1" connectable="0"><mxGeometry width="1226" height="625" as="geometry"/></mxCell><mxCell id="113" value="" style="group;rounded=0;" parent="111" vertex="1" connectable="0"><mxGeometry x="-10.04" width="1232.04" height="625" as="geometry"/></mxCell><mxCell id="145" value="" style="group;rounded=0;" parent="113" vertex="1" connectable="0"><mxGeometry x="33.92978447648272" y="180" width="897.69" height="285" as="geometry"/></mxCell><mxCell id="192" value="" style="endArrow=none;dashed=1;html=1;dashPattern=1 3;strokeWidth=2;rounded=0;entryX=0.001;entryY=0.416;entryDx=0;entryDy=0;entryPerimeter=0;" parent="145" target="187" edge="1"><mxGeometry width="50" height="50" relative="1" as="geometry"><mxPoint x="122.10397095169168" y="-20.430000000000064" as="sourcePoint"/><mxPoint x="836.0039709516916" y="-137.99" as="targetPoint"/><Array as="points"><mxPoint x="122.10397095169168" y="-21.430000000000064"/></Array></mxGeometry></mxCell><mxCell id="191" value="" style="group;rounded=0;" parent="113" vertex="1" connectable="0"><mxGeometry x="43.0297844764828" y="197" width="502.9702155235172" height="110" as="geometry"/></mxCell><mxCell id="189" value="[exists]" style="text;html=1;align=center;verticalAlign=middle;whiteSpace=wrap;rounded=0;" parent="113" vertex="1"><mxGeometry x="53.029784476482774" y="138.57000000000005" width="80" height="18.03" as="geometry"/></mxCell><mxCell id="109" value="&lt;b&gt;alt&lt;/b&gt;" style="rounded=0;whiteSpace=wrap;html=1;" parent="106" vertex="1"><mxGeometry x="9.998984583984706" y="67.19" width="78.12608058756696" height="40.31249999999999" as="geometry"/></mxCell><mxCell id="110" value="[scheduled]" style="text;html=1;align=center;verticalAlign=middle;whiteSpace=wrap;rounded=0;" parent="106" vertex="1"><mxGeometry x="115.99168316831683" y="72.94" width="110.42148514851485" height="34.55999999999999" as="geometry"/></mxCell><mxCell id="119" value="&lt;b&gt;loop&lt;/b&gt;" style="rounded=0;whiteSpace=wrap;html=1;" parent="106" vertex="1"><mxGeometry x="15.990864881014417" y="118.57" width="78.12608058756696" height="40.31249999999999" as="geometry"/></mxCell><mxCell id="120" value="[for all stops&lt;br&gt;in delivery]" style="text;html=1;align=center;verticalAlign=middle;whiteSpace=wrap;rounded=0;" parent="106" vertex="1"><mxGeometry x="0.9335634653465337" y="158.88" width="110.42148514851485" height="34.55999999999999" as="geometry"/></mxCell><mxCell id="122" value="&lt;b&gt;alt&lt;/b&gt;" style="rounded=0;whiteSpace=wrap;html=1;" parent="106" vertex="1"><mxGeometry x="22.99146764479957" y="193.44" width="41.03592111670183" height="21.032608695652176" as="geometry"/></mxCell><mxCell id="188" value="&lt;b&gt;alt&lt;/b&gt;" style="rounded=0;whiteSpace=wrap;html=1;" parent="106" vertex="1"><mxGeometry x="25.995438596491205" y="250.08000000000004" width="40" height="10" as="geometry"/></mxCell><mxCell id="195" value="[!exists]" style="text;html=1;align=center;verticalAlign=middle;whiteSpace=wrap;rounded=0;" parent="106" vertex="1"><mxGeometry x="52.99146764479959" y="269.57000000000005" width="80" height="18.03" as="geometry"/></mxCell><mxCell id="202" value="" style="rounded=0;whiteSpace=wrap;html=1;" parent="106" vertex="1"><mxGeometry x="405" y="444.57" width="513" height="287.43" as="geometry"/></mxCell><mxCell id="247" value="" style="rounded=0;whiteSpace=wrap;html=1;" parent="106" vertex="1"><mxGeometry x="412.99" y="498.57" width="485" height="211.43" as="geometry"/></mxCell><mxCell id="357" value="" style="endArrow=none;dashed=1;html=1;dashPattern=1 3;strokeWidth=2;rounded=0;" parent="106" edge="1"><mxGeometry width="50" height="50" relative="1" as="geometry"><mxPoint x="416.9954385964912" y="688.5699999999999" as="sourcePoint"/><mxPoint x="896.9954385964912" y="688.5699999999999" as="targetPoint"/></mxGeometry></mxCell><mxCell id="362" value="" style="endArrow=none;dashed=1;html=1;dashPattern=1 3;strokeWidth=2;rounded=0;entryX=1.001;entryY=0.951;entryDx=0;entryDy=0;entryPerimeter=0;exitX=0.002;exitY=0.948;exitDx=0;exitDy=0;exitPerimeter=0;" parent="106" source="202" target="202" edge="1"><mxGeometry width="50" height="50" relative="1" as="geometry"><mxPoint x="426.9954385964912" y="698.5699999999999" as="sourcePoint"/><mxPoint x="906.9954385964912" y="698.5699999999999" as="targetPoint"/></mxGeometry></mxCell><mxCell id="249" value="[dAvailable]" style="text;html=1;align=center;verticalAlign=middle;whiteSpace=wrap;rounded=0;" parent="106" vertex="1"><mxGeometry x="417.9950385964912" y="515.57" width="56.03039999999999" height="13.264" as="geometry"/></mxCell><mxCell id="248" value="&lt;b&gt;alt&lt;/b&gt;" style="rounded=0;whiteSpace=wrap;html=1;" parent="106" vertex="1"><mxGeometry x="412.9954385964912" y="499.56999999999994" width="40" height="13.26" as="geometry"/></mxCell><mxCell id="410" value="" style="endArrow=none;dashed=1;html=1;dashPattern=1 3;strokeWidth=2;rounded=0;exitX=0;exitY=0.932;exitDx=0;exitDy=0;exitPerimeter=0;entryX=1;entryY=0.933;entryDx=0;entryDy=0;entryPerimeter=0;" parent="106" source="364" target="364" edge="1"><mxGeometry width="50" height="50" relative="1" as="geometry"><mxPoint x="316.9954385964912" y="728.5699999999999" as="sourcePoint"/><mxPoint x="928.9954385964912" y="738.5699999999999" as="targetPoint"/></mxGeometry></mxCell><mxCell id="419" value="" style="rounded=0;whiteSpace=wrap;html=1;" parent="106" vertex="1"><mxGeometry x="199" y="833.59" width="861" height="632.41" as="geometry"/></mxCell><mxCell id="487" value="" style="endArrow=none;dashed=1;html=1;dashPattern=1 3;strokeWidth=2;rounded=0;exitX=-0.001;exitY=0.971;exitDx=0;exitDy=0;exitPerimeter=0;entryX=0.999;entryY=0.97;entryDx=0;entryDy=0;entryPerimeter=0;" parent="106" source="419" target="419" edge="1"><mxGeometry width="50" height="50" relative="1" as="geometry"><mxPoint x="199.99543859649123" y="1448.57" as="sourcePoint"/><mxPoint x="1036.995438596491" y="1428.57" as="targetPoint"/></mxGeometry></mxCell><mxCell id="501" value="" style="rounded=0;whiteSpace=wrap;html=1;" parent="106" vertex="1"><mxGeometry x="429" y="1585.57" width="471" height="91.43" as="geometry"/></mxCell><mxCell id="507" value="" style="endArrow=none;dashed=1;html=1;dashPattern=1 3;strokeWidth=2;rounded=0;exitX=0;exitY=0.75;exitDx=0;exitDy=0;entryX=1;entryY=0.75;entryDx=0;entryDy=0;" parent="106" source="501" target="501" edge="1"><mxGeometry width="50" height="50" relative="1" as="geometry"><mxPoint x="605.9954385964912" y="1668.57" as="sourcePoint"/><mxPoint x="655.9954385964912" y="1618.57" as="targetPoint"/></mxGeometry></mxCell><mxCell id="509" value="[truck = null]" style="text;html=1;align=center;verticalAlign=middle;whiteSpace=wrap;rounded=0;" parent="106" vertex="1"><mxGeometry x="543" y="1652.57" width="77" height="30" as="geometry"/></mxCell><mxCell id="123" value="[type = store]" style="text;html=1;align=center;verticalAlign=middle;whiteSpace=wrap;rounded=0;" parent="106" vertex="1"><mxGeometry x="25.99146764479957" y="214.46999999999997" width="80" height="18.03" as="geometry"/></mxCell><mxCell id="521" value="[type != store]" style="text;html=1;align=center;verticalAlign=middle;whiteSpace=wrap;rounded=0;" parent="106" vertex="1"><mxGeometry x="165.99146764479963" y="296.07" width="80" height="18.03" as="geometry"/></mxCell><mxCell id="528" value="" style="endArrow=none;dashed=1;html=1;dashPattern=1 3;strokeWidth=2;rounded=0;" parent="106" edge="1"><mxGeometry width="50" height="50" relative="1" as="geometry"><mxPoint x="6" y="1838.57" as="sourcePoint"/><mxPoint x="1126" y="1838.57" as="targetPoint"/></mxGeometry></mxCell><mxCell id="531" value="[!scheduled]" style="text;html=1;align=center;verticalAlign=middle;whiteSpace=wrap;rounded=0;" parent="106" vertex="1"><mxGeometry x="146.00168316831684" y="1835.4399999999998" width="110.42148514851485" height="34.55999999999999" as="geometry"/></mxCell><mxCell id="533" value="" style="endArrow=none;dashed=1;html=1;dashPattern=1 3;strokeWidth=2;rounded=0;exitX=0;exitY=0.985;exitDx=0;exitDy=0;exitPerimeter=0;" parent="106" source="102" edge="1"><mxGeometry width="50" height="50" relative="1" as="geometry"><mxPoint x="16" y="1848.5699999999995" as="sourcePoint"/><mxPoint x="1146" y="1878.57" as="targetPoint"/></mxGeometry></mxCell><mxCell id="596" value="Data Access Layer calls" style="rounded=0;whiteSpace=wrap;html=1;" parent="106" vertex="1"><mxGeometry x="1036" y="1774.57" width="74" height="60" as="geometry"/></mxCell><mxCell id="599" value="Data Access Layer calls" style="rounded=0;whiteSpace=wrap;html=1;" parent="106" vertex="1"><mxGeometry x="1036" y="1708.57" width="74" height="60" as="geometry"/></mxCell><mxCell id="605" value="" style="rounded=0;whiteSpace=wrap;html=1;" parent="106" vertex="1"><mxGeometry x="536" y="1730.57" width="382" height="58" as="geometry"/></mxCell><mxCell id="600" value="" style="shape=flexArrow;endArrow=classic;html=1;rounded=0;" parent="106" source="515" edge="1"><mxGeometry width="50" height="50" relative="1" as="geometry"><mxPoint x="543.0000000000001" y="1739.57" as="sourcePoint"/><mxPoint x="1036" y="1738.57" as="targetPoint"/></mxGeometry></mxCell><mxCell id="611" value="[driver exists]" style="text;html=1;align=center;verticalAlign=middle;whiteSpace=wrap;rounded=0;" parent="106" vertex="1"><mxGeometry x="534.47" y="1734.57" width="76" height="30" as="geometry"/></mxCell><mxCell id="612" value="[!driver exists]" style="text;html=1;align=center;verticalAlign=middle;whiteSpace=wrap;rounded=0;" parent="106" vertex="1"><mxGeometry x="663" y="1762.57" width="83" height="30" as="geometry"/></mxCell><mxCell id="613" value="" style="endArrow=none;dashed=1;html=1;dashPattern=1 3;strokeWidth=2;rounded=0;exitX=0.002;exitY=0.658;exitDx=0;exitDy=0;entryX=1;entryY=0.658;entryDx=0;entryDy=0;entryPerimeter=0;exitPerimeter=0;" parent="106" source="605" target="605" edge="1"><mxGeometry width="50" height="50" relative="1" as="geometry"><mxPoint x="439" y="1664.1424999999997" as="sourcePoint"/><mxPoint x="910" y="1664.1424999999997" as="targetPoint"/></mxGeometry></mxCell><mxCell id="578" value="" style="endArrow=none;dashed=1;html=1;dashPattern=1 3;strokeWidth=2;rounded=0;exitX=0;exitY=0.985;exitDx=0;exitDy=0;exitPerimeter=0;entryX=1;entryY=0.983;entryDx=0;entryDy=0;entryPerimeter=0;" parent="94" source="89" target="89" edge="1"><mxGeometry width="50" height="50" relative="1" as="geometry"><mxPoint x="24.930000000000064" y="1952.7799999999997" as="sourcePoint"/><mxPoint x="1170" y="1949.9999999999995" as="targetPoint"/></mxGeometry></mxCell><mxCell id="580" value="" style="endArrow=none;dashed=1;html=1;dashPattern=1 3;strokeWidth=2;rounded=0;exitX=0;exitY=0.99;exitDx=0;exitDy=0;exitPerimeter=0;entryX=1;entryY=0.991;entryDx=0;entryDy=0;entryPerimeter=0;" parent="79" source="76" target="76" edge="1"><mxGeometry width="50" height="50" relative="1" as="geometry"><mxPoint x="20" y="2059.7000000000003" as="sourcePoint"/><mxPoint x="1195.0000000000005" y="2055.6600000000003" as="targetPoint"/></mxGeometry></mxCell><mxCell id="431" value="" style="rounded=0;whiteSpace=wrap;html=1;" parent="1" vertex="1"><mxGeometry x="620" y="1206" width="821" height="544" as="geometry"/></mxCell><mxCell id="12" value="1.1:&lt;br&gt;ApproveDelivery(deliveryId)" style="html=1;verticalAlign=bottom;endArrow=block;edgeStyle=elbowEdgeStyle;elbow=vertical;curved=0;rounded=0;" parent="1" source="9" target="11" edge="1"><mxGeometry x="0.0625" relative="1" as="geometry"><mxPoint x="320" y="130" as="sourcePoint"/><Array as="points"><mxPoint x="250" y="110"/><mxPoint x="170" y="160"/><mxPoint x="240" y="100"/></Array><mxPoint as="offset"/></mxGeometry></mxCell><mxCell id="13" value="return(message)" style="html=1;verticalAlign=bottom;endArrow=open;dashed=1;endSize=8;edgeStyle=elbowEdgeStyle;elbow=vertical;curved=0;rounded=0;" parent="1" source="11" target="9" edge="1"><mxGeometry relative="1" as="geometry"><mxPoint x="320" y="205" as="targetPoint"/><Array as="points"><mxPoint x="220" y="2310"/><mxPoint x="220" y="2180"/><mxPoint x="250" y="1850"/><mxPoint x="210" y="420"/><mxPoint x="200" y="280"/></Array></mxGeometry></mxCell><mxCell id="256" value="" style="rounded=0;whiteSpace=wrap;html=1;" parent="1" vertex="1"><mxGeometry x="831" y="858" width="299" height="133" as="geometry"/></mxCell><mxCell id="15" value="1:&lt;br&gt;ApproveDelivery(deliveryId)" style="html=1;verticalAlign=bottom;startArrow=oval;endArrow=block;startSize=8;edgeStyle=elbowEdgeStyle;elbow=vertical;curved=0;rounded=0;" parent="1" source="14" target="9" edge="1"><mxGeometry x="0.3323" relative="1" as="geometry"><mxPoint x="150" y="110" as="sourcePoint"/><Array as="points"><mxPoint x="110" y="90"/><mxPoint x="50" y="90"/><mxPoint x="160" y="110"/><mxPoint x="130" y="130"/></Array><mxPoint as="offset"/></mxGeometry></mxCell><mxCell id="342" value="" style="rounded=0;whiteSpace=wrap;html=1;" parent="1" vertex="1"><mxGeometry x="838" y="907" width="202" height="43" as="geometry"/></mxCell><mxCell id="22" value="1.1.1: approveDelivery(deliveryId)" style="html=1;verticalAlign=bottom;endArrow=block;edgeStyle=elbowEdgeStyle;elbow=vertical;curved=0;rounded=0;" parent="1" source="11" target="17" edge="1"><mxGeometry x="-0.05" relative="1" as="geometry"><mxPoint x="320" y="110" as="sourcePoint"/><Array as="points"><mxPoint x="350" y="130"/><mxPoint x="500" y="190"/><mxPoint x="400" y="180"/><mxPoint x="440" y="170"/><mxPoint x="480" y="160"/><mxPoint x="390" y="120"/><mxPoint x="455" y="110"/></Array><mxPoint x="520" y="110" as="targetPoint"/><mxPoint as="offset"/></mxGeometry></mxCell><mxCell id="63" value="" style="html=1;points=[];perimeter=orthogonalPerimeter;outlineConnect=0;targetShapes=umlLifeline;portConstraint=eastwest;newEdgeStyle={&quot;edgeStyle&quot;:&quot;elbowEdgeStyle&quot;,&quot;elbow&quot;:&quot;vertical&quot;,&quot;curved&quot;:0,&quot;rounded&quot;:0};rounded=0;" parent="1" vertex="1"><mxGeometry x="515" y="144.0025" width="10" height="30.46875" as="geometry"/></mxCell><mxCell id="66" value="" style="group;rounded=0;" parent="1" vertex="1" connectable="0"><mxGeometry x="540" y="140" width="150" height="30" as="geometry"/></mxCell><mxCell id="32" value="" style="edgeStyle=elbowEdgeStyle;elbow=vertical;endArrow=classic;html=1;rounded=0;" parent="66" source="63" target="63" edge="1"><mxGeometry width="50" height="50" relative="1" as="geometry"><mxPoint x="65" y="100" as="sourcePoint"/><mxPoint x="115" y="50" as="targetPoint"/></mxGeometry></mxCell><mxCell id="65" value="1.1.1.1: getDelivery(deliveryId)" style="text;html=1;align=center;verticalAlign=middle;whiteSpace=wrap;rounded=0;" parent="66" vertex="1"><mxGeometry width="150" height="30" as="geometry"/></mxCell><mxCell id="75" value="rerturn(exists)" style="html=1;verticalAlign=bottom;endArrow=open;dashed=1;endSize=8;edgeStyle=elbowEdgeStyle;elbow=vertical;curved=0;rounded=0;" parent="1" edge="1"><mxGeometry x="0.1071" relative="1" as="geometry"><mxPoint x="525" y="556" as="targetPoint"/><Array as="points"><mxPoint x="600" y="556"/><mxPoint x="750" y="556"/><mxPoint x="730" y="696"/><mxPoint x="660" y="726"/><mxPoint x="630" y="706"/><mxPoint x="680" y="676"/><mxPoint x="780" y="746"/><mxPoint x="640" y="696"/><mxPoint x="670" y="651"/><mxPoint x="690" y="521"/><mxPoint x="700" y="521"/><mxPoint x="630" y="501.47"/><mxPoint x="675" y="461.47"/><mxPoint x="695" y="471.47"/></Array><mxPoint x="805" y="556" as="sourcePoint"/><mxPoint as="offset"/></mxGeometry></mxCell><mxCell id="87" value="1.1.1.1.2: getStatus()" style="html=1;verticalAlign=bottom;endArrow=block;edgeStyle=elbowEdgeStyle;elbow=vertical;curved=0;rounded=0;" parent="1" source="17" target="84" edge="1"><mxGeometry relative="1" as="geometry"><mxPoint x="580" y="214.95" as="sourcePoint"/><Array as="points"><mxPoint x="640" y="210"/><mxPoint x="630" y="280"/><mxPoint x="765" y="214.95"/><mxPoint x="665" y="204.95"/><mxPoint x="705" y="194.95"/><mxPoint x="745" y="184.95"/><mxPoint x="655" y="144.95"/><mxPoint x="720" y="134.95"/></Array><mxPoint x="780" y="214.95" as="targetPoint"/></mxGeometry></mxCell><mxCell id="88" value="return(status)" style="html=1;verticalAlign=bottom;endArrow=open;dashed=1;endSize=8;edgeStyle=elbowEdgeStyle;elbow=vertical;curved=0;rounded=0;" parent="1" source="84" target="17" edge="1"><mxGeometry relative="1" as="geometry"><mxPoint x="440" y="214.95" as="targetPoint"/><Array as="points"><mxPoint x="690" y="240"/><mxPoint x="580" y="310"/><mxPoint x="575" y="214.95"/><mxPoint x="525" y="94.94999999999999"/><mxPoint x="615" y="34.620000000000005"/><mxPoint x="625" y="34.620000000000005"/><mxPoint x="555" y="15.090000000000032"/><mxPoint x="600" y="-24.910000000000025"/><mxPoint x="620" y="-14.910000000000025"/></Array><mxPoint x="720" y="214.95" as="sourcePoint"/><mxPoint as="offset"/></mxGeometry></mxCell><mxCell id="71" value="1.1.1.1.3:&lt;br&gt;isDriverScheduled(driverId,date)" style="html=1;verticalAlign=bottom;endArrow=block;edgeStyle=elbowEdgeStyle;elbow=vertical;curved=0;rounded=0;" parent="1" source="17" target="80" edge="1"><mxGeometry x="0.0222" relative="1" as="geometry"><mxPoint x="525" y="340" as="sourcePoint"/><Array as="points"><mxPoint x="660" y="340"/><mxPoint x="770" y="330"/><mxPoint x="750" y="380"/><mxPoint x="650" y="450"/><mxPoint x="640" y="330"/><mxPoint x="670" y="330"/><mxPoint x="610" y="320"/><mxPoint x="650" y="310"/><mxPoint x="690" y="300"/><mxPoint x="600" y="260"/><mxPoint x="665" y="250"/></Array><mxPoint x="745" y="340.00000000000006" as="targetPoint"/><mxPoint as="offset"/></mxGeometry></mxCell><mxCell id="72" value="return(scheduled)" style="html=1;verticalAlign=bottom;endArrow=open;dashed=1;endSize=8;edgeStyle=elbowEdgeStyle;elbow=vertical;curved=0;rounded=0;" parent="1" source="80" target="17" edge="1"><mxGeometry x="-0.0357" relative="1" as="geometry"><mxPoint x="525" y="299.67" as="targetPoint"/><Array as="points"><mxPoint x="750" y="370"/><mxPoint x="720" y="410"/><mxPoint x="660" y="480"/><mxPoint x="610" y="360"/><mxPoint x="700" y="299.67"/><mxPoint x="710" y="299.67"/><mxPoint x="640" y="280.14000000000004"/><mxPoint x="685" y="240.14"/><mxPoint x="705" y="250.14"/></Array><mxPoint x="750" y="299.66999999999996" as="sourcePoint"/><mxPoint as="offset"/></mxGeometry></mxCell><mxCell id="74" value="1.1.1.5:&lt;br&gt;getType()" style="html=1;verticalAlign=bottom;endArrow=block;edgeStyle=elbowEdgeStyle;elbow=vertical;curved=0;rounded=0;" parent="1" target="73" edge="1"><mxGeometry x="0.4343" relative="1" as="geometry"><mxPoint x="525" y="660" as="sourcePoint"/><Array as="points"><mxPoint x="660" y="460"/><mxPoint x="700" y="450"/><mxPoint x="650" y="610"/><mxPoint x="720" y="590"/><mxPoint x="670" y="550"/><mxPoint x="760" y="590"/><mxPoint x="670" y="590"/><mxPoint x="600" y="660"/><mxPoint x="620" y="660"/><mxPoint x="620" y="670"/><mxPoint x="640" y="615"/><mxPoint x="650" y="485"/><mxPoint x="670" y="475"/><mxPoint x="610" y="465"/><mxPoint x="650" y="455"/><mxPoint x="690" y="445"/><mxPoint x="600" y="405"/><mxPoint x="665" y="395"/></Array><mxPoint x="710" y="485" as="targetPoint"/><mxPoint as="offset"/></mxGeometry></mxCell><mxCell id="99" value="1.1.1.1.3: getSourceLoadCount()" style="html=1;verticalAlign=bottom;endArrow=block;edgeStyle=elbowEdgeStyle;elbow=vertical;curved=0;rounded=0;" parent="1" source="17" target="96" edge="1"><mxGeometry relative="1" as="geometry"><mxPoint x="500" y="220.47" as="sourcePoint"/><Array as="points"><mxPoint x="630" y="270"/><mxPoint x="630" y="280"/><mxPoint x="630" y="290"/><mxPoint x="580" y="360"/><mxPoint x="605" y="220.47"/><mxPoint x="740" y="155.42"/><mxPoint x="640" y="145.42"/><mxPoint x="680" y="135.42"/><mxPoint x="720" y="125.41999999999999"/><mxPoint x="630" y="85.41999999999999"/><mxPoint x="695" y="75.41999999999999"/></Array><mxPoint x="655" y="220.47250000000005" as="targetPoint"/></mxGeometry></mxCell><mxCell id="100" value="return(count)" style="html=1;verticalAlign=bottom;endArrow=open;dashed=1;endSize=8;edgeStyle=elbowEdgeStyle;elbow=vertical;curved=0;rounded=0;" parent="1" source="96" target="17" edge="1"><mxGeometry relative="1" as="geometry"><mxPoint x="535" y="320" as="targetPoint"/><Array as="points"><mxPoint x="640" y="300"/><mxPoint x="600" y="320"/><mxPoint x="580" y="390"/><mxPoint x="590" y="320"/><mxPoint x="585" y="224.95"/><mxPoint x="535" y="104.94999999999999"/><mxPoint x="625" y="44.620000000000005"/><mxPoint x="635" y="44.620000000000005"/><mxPoint x="565" y="25.090000000000032"/><mxPoint x="610" y="-14.910000000000025"/><mxPoint x="630" y="-4.910000000000025"/></Array><mxPoint x="705" y="320" as="sourcePoint"/><mxPoint as="offset"/></mxGeometry></mxCell><mxCell id="126" value="" style="group;rounded=0;" parent="1" vertex="1" connectable="0"><mxGeometry x="760" y="20" width="680" height="2310" as="geometry"/></mxCell><mxCell id="128" value="1.1.1.6:&lt;br&gt;isStoreKeeperExist(date,address,arriveTime)" style="html=1;verticalAlign=bottom;endArrow=block;edgeStyle=elbowEdgeStyle;elbow=vertical;curved=0;rounded=0;" parent="126" target="129" edge="1"><mxGeometry x="0.4475" y="-10" relative="1" as="geometry"><mxPoint x="-235" y="685.5633802816902" as="sourcePoint"/><Array as="points"><mxPoint x="-190" y="510"/><mxPoint x="-140" y="500"/><mxPoint x="-70" y="640"/><mxPoint x="-90" y="669.6408450704225"/><mxPoint x="-160" y="619.6408450704225"/><mxPoint x="-160" y="685.5633802816902"/><mxPoint x="-140" y="685.5633802816902"/><mxPoint x="-140" y="697.1830985915494"/><mxPoint x="-120" y="633.274647887324"/><mxPoint x="-110" y="482.218309859155"/><mxPoint x="-90" y="470.5985915492958"/><mxPoint x="-150" y="458.97887323943667"/><mxPoint x="-110" y="447.3591549295775"/><mxPoint x="-70" y="435.7394366197184"/><mxPoint x="-160" y="389.2605633802817"/><mxPoint x="-95" y="377.6408450704226"/></Array><mxPoint x="-50" y="482.218309859155" as="targetPoint"/><mxPoint as="offset"/></mxGeometry></mxCell><mxCell id="434" value="" style="rounded=0;whiteSpace=wrap;html=1;" parent="126" vertex="1"><mxGeometry x="-138" y="1251" width="808" height="449" as="geometry"/></mxCell><mxCell id="441" value="[countLU &amp;gt; 0]" style="text;html=1;align=center;verticalAlign=middle;whiteSpace=wrap;rounded=0;" parent="126" vertex="1"><mxGeometry x="-138" y="1273" width="76" height="30" as="geometry"/></mxCell><mxCell id="451" value="" style="rounded=0;whiteSpace=wrap;html=1;" parent="126" vertex="1"><mxGeometry x="-129" y="1318" width="789" height="352" as="geometry"/></mxCell><mxCell id="453" value="[matching]" style="text;html=1;align=center;verticalAlign=middle;whiteSpace=wrap;rounded=0;" parent="126" vertex="1"><mxGeometry x="-137" y="1337" width="76" height="30" as="geometry"/></mxCell><mxCell id="456" value="" style="rounded=0;whiteSpace=wrap;html=1;" parent="126" vertex="1"><mxGeometry x="-120" y="1390" width="770" height="250" as="geometry"/></mxCell><mxCell id="457" value="&lt;b&gt;alt&lt;/b&gt;" style="rounded=0;whiteSpace=wrap;html=1;" parent="126" vertex="1"><mxGeometry x="-120" y="1390" width="52" height="22" as="geometry"/></mxCell><mxCell id="458" value="[empty]" style="text;html=1;align=center;verticalAlign=middle;whiteSpace=wrap;rounded=0;" parent="126" vertex="1"><mxGeometry x="-129" y="1410" width="76" height="30" as="geometry"/></mxCell><mxCell id="462" value="" style="rounded=0;whiteSpace=wrap;html=1;" parent="126" vertex="1"><mxGeometry x="-110" y="1460" width="750" height="80" as="geometry"/></mxCell><mxCell id="464" value="&lt;b&gt;loop&lt;/b&gt;" style="rounded=0;whiteSpace=wrap;html=1;" parent="126" vertex="1"><mxGeometry x="-110" y="1460" width="40" height="22" as="geometry"/></mxCell><mxCell id="465" value="[for all stops in destination list" style="text;html=1;align=center;verticalAlign=middle;whiteSpace=wrap;rounded=0;" parent="126" vertex="1"><mxGeometry x="-53" y="1460" width="83" height="30" as="geometry"/></mxCell><mxCell id="69" value="ShiftController" style="shape=umlLifeline;perimeter=lifelinePerimeter;whiteSpace=wrap;html=1;container=0;dropTarget=0;collapsible=0;recursiveResize=0;outlineConnect=0;portConstraint=eastwest;newEdgeStyle={&quot;edgeStyle&quot;:&quot;elbowEdgeStyle&quot;,&quot;elbow&quot;:&quot;vertical&quot;,&quot;curved&quot;:0,&quot;rounded&quot;:0};rounded=0;" parent="126" vertex="1"><mxGeometry width="100" height="2310" as="geometry"/></mxCell><mxCell id="80" value="" style="html=1;points=[];perimeter=orthogonalPerimeter;outlineConnect=0;targetShapes=umlLifeline;portConstraint=eastwest;newEdgeStyle={&quot;edgeStyle&quot;:&quot;elbowEdgeStyle&quot;,&quot;elbow&quot;:&quot;vertical&quot;,&quot;curved&quot;:0,&quot;rounded&quot;:0};rounded=0;" parent="126" vertex="1"><mxGeometry x="45" y="320.004572741326" width="10" height="35.40382922535211" as="geometry"/></mxCell><mxCell id="73" value="" style="html=1;points=[];perimeter=orthogonalPerimeter;outlineConnect=0;targetShapes=umlLifeline;portConstraint=eastwest;newEdgeStyle={&quot;edgeStyle&quot;:&quot;elbowEdgeStyle&quot;,&quot;elbow&quot;:&quot;vertical&quot;,&quot;curved&quot;:0,&quot;rounded&quot;:0};rounded=0;" parent="126" vertex="1"><mxGeometry x="45" y="440.00084507042266" width="10" height="32" as="geometry"/></mxCell><mxCell id="129" value="" style="html=1;points=[];perimeter=orthogonalPerimeter;outlineConnect=0;targetShapes=umlLifeline;portConstraint=eastwest;newEdgeStyle={&quot;edgeStyle&quot;:&quot;elbowEdgeStyle&quot;,&quot;elbow&quot;:&quot;vertical&quot;,&quot;curved&quot;:0,&quot;rounded&quot;:0};rounded=0;" parent="126" vertex="1"><mxGeometry x="45" y="510" width="10" height="26" as="geometry"/></mxCell><mxCell id="454" value="Stop" style="shape=umlLifeline;perimeter=lifelinePerimeter;whiteSpace=wrap;html=1;container=0;dropTarget=0;collapsible=0;recursiveResize=0;outlineConnect=0;portConstraint=eastwest;newEdgeStyle={&quot;edgeStyle&quot;:&quot;elbowEdgeStyle&quot;,&quot;elbow&quot;:&quot;vertical&quot;,&quot;curved&quot;:0,&quot;rounded&quot;:0};rounded=0;" parent="126" vertex="1"><mxGeometry x="580" width="100" height="2310" as="geometry"/></mxCell><mxCell id="455" value="" style="html=1;points=[];perimeter=orthogonalPerimeter;outlineConnect=0;targetShapes=umlLifeline;portConstraint=eastwest;newEdgeStyle={&quot;edgeStyle&quot;:&quot;elbowEdgeStyle&quot;,&quot;elbow&quot;:&quot;vertical&quot;,&quot;curved&quot;:0,&quot;rounded&quot;:0};rounded=0;" parent="126" vertex="1"><mxGeometry x="625" y="1500" width="10" height="29" as="geometry"/></mxCell><mxCell id="474" value="" style="endArrow=none;dashed=1;html=1;dashPattern=1 3;strokeWidth=2;rounded=0;entryX=0.999;entryY=0.95;entryDx=0;entryDy=0;entryPerimeter=0;exitX=0.001;exitY=0.954;exitDx=0;exitDy=0;exitPerimeter=0;" parent="126" source="451" target="451" edge="1"><mxGeometry width="50" height="50" relative="1" as="geometry"><mxPoint x="240" y="1760" as="sourcePoint"/><mxPoint x="290" y="1710" as="targetPoint"/></mxGeometry></mxCell><mxCell id="479" value="" style="endArrow=none;dashed=1;html=1;dashPattern=1 3;strokeWidth=2;rounded=0;exitX=0.002;exitY=0.952;exitDx=0;exitDy=0;exitPerimeter=0;entryX=1;entryY=0.955;entryDx=0;entryDy=0;entryPerimeter=0;" parent="126" source="434" target="434" edge="1"><mxGeometry width="50" height="50" relative="1" as="geometry"><mxPoint x="-118.21099999999979" y="1659.9539999999997" as="sourcePoint"/><mxPoint x="670" y="1690" as="targetPoint"/></mxGeometry></mxCell><mxCell id="251" value="Truck" style="shape=umlLifeline;perimeter=lifelinePerimeter;whiteSpace=wrap;html=1;container=0;dropTarget=0;collapsible=0;recursiveResize=0;outlineConnect=0;portConstraint=eastwest;newEdgeStyle={&quot;edgeStyle&quot;:&quot;elbowEdgeStyle&quot;,&quot;elbow&quot;:&quot;vertical&quot;,&quot;curved&quot;:0,&quot;rounded&quot;:0};rounded=0;" parent="126" vertex="1"><mxGeometry x="470" width="100" height="2310" as="geometry"/></mxCell><mxCell id="252" value="" style="html=1;points=[];perimeter=orthogonalPerimeter;outlineConnect=0;targetShapes=umlLifeline;portConstraint=eastwest;newEdgeStyle={&quot;edgeStyle&quot;:&quot;elbowEdgeStyle&quot;,&quot;elbow&quot;:&quot;vertical&quot;,&quot;curved&quot;:0,&quot;rounded&quot;:0};rounded=0;" parent="251" vertex="1"><mxGeometry x="45" y="804.26" width="10" height="29" as="geometry"/></mxCell><mxCell id="505" value="" style="html=1;points=[];perimeter=orthogonalPerimeter;outlineConnect=0;targetShapes=umlLifeline;portConstraint=eastwest;newEdgeStyle={&quot;edgeStyle&quot;:&quot;elbowEdgeStyle&quot;,&quot;elbow&quot;:&quot;vertical&quot;,&quot;curved&quot;:0,&quot;rounded&quot;:0};rounded=0;" parent="126" vertex="1"><mxGeometry x="515" y="1888" width="10" height="20" as="geometry"/></mxCell><mxCell id="127" value="rerturn(type)" style="html=1;verticalAlign=bottom;endArrow=open;dashed=1;endSize=8;edgeStyle=elbowEdgeStyle;elbow=vertical;curved=0;rounded=0;" parent="1" source="73" target="17" edge="1"><mxGeometry x="-0.6786" relative="1" as="geometry"><mxPoint x="525" y="747.6056338028168" as="targetPoint"/><Array as="points"><mxPoint x="760" y="490"/><mxPoint x="760" y="610"/><mxPoint x="650" y="640"/><mxPoint x="560" y="620"/><mxPoint x="760" y="580"/><mxPoint x="740" y="580"/><mxPoint x="770" y="580"/><mxPoint x="680" y="630"/><mxPoint x="640" y="747.6056338028168"/><mxPoint x="670" y="695.6338028169014"/><mxPoint x="690" y="545.4929577464789"/><mxPoint x="700" y="545.4929577464789"/><mxPoint x="630" y="522.9371830985915"/><mxPoint x="675" y="476.74"/><mxPoint x="695" y="488.28929577464794"/></Array><mxPoint x="735" y="545.4929577464789" as="sourcePoint"/><mxPoint as="offset"/></mxGeometry></mxCell><mxCell id="137" value="1.1.1.7:&lt;br&gt;approveDelivery(delivery.driverId,delivery.truckId,delivery.date,delivery.type)" style="html=1;verticalAlign=bottom;endArrow=block;edgeStyle=elbowEdgeStyle;elbow=vertical;curved=0;rounded=0;" parent="1" source="17" target="30" edge="1"><mxGeometry x="-0.0127" relative="1" as="geometry"><mxPoint x="535" y="715.5633802816901" as="sourcePoint"/><Array as="points"><mxPoint x="780" y="670"/><mxPoint x="750" y="680"/><mxPoint x="740" y="690"/><mxPoint x="720" y="790"/><mxPoint x="660" y="780"/><mxPoint x="670" y="830"/><mxPoint x="700" y="810"/><mxPoint x="770" y="870"/><mxPoint x="650" y="800"/><mxPoint x="670" y="760"/><mxPoint x="630" y="740"/><mxPoint x="670" y="720"/><mxPoint x="570" y="810"/><mxPoint x="900" y="800"/><mxPoint x="750" y="800"/><mxPoint x="640" y="780"/><mxPoint x="610" y="715.5633802816902"/><mxPoint x="630" y="715.5633802816902"/><mxPoint x="630" y="727.1830985915494"/><mxPoint x="650" y="663.274647887324"/><mxPoint x="660" y="512.2183098591549"/><mxPoint x="680" y="500.5985915492958"/><mxPoint x="620" y="488.97887323943667"/><mxPoint x="660" y="477.3591549295775"/><mxPoint x="700" y="465.7394366197184"/><mxPoint x="610" y="419.2605633802817"/><mxPoint x="675" y="407.6408450704226"/></Array><mxPoint x="815" y="715.5633802816901" as="targetPoint"/><mxPoint as="offset"/></mxGeometry></mxCell><mxCell id="353" value="" style="endArrow=none;dashed=1;html=1;dashPattern=1 3;strokeWidth=2;rounded=0;entryX=1.002;entryY=0.831;entryDx=0;entryDy=0;exitX=-0.001;exitY=0.828;exitDx=0;exitDy=0;entryPerimeter=0;exitPerimeter=0;" parent="1" source="256" target="256" edge="1"><mxGeometry width="50" height="50" relative="1" as="geometry"><mxPoint x="850.0000000000005" y="942" as="sourcePoint"/><mxPoint x="1050.0000000000005" y="942" as="targetPoint"/></mxGeometry></mxCell><mxCell id="155" value="1.1.1.7.1:&lt;br&gt;getDriver(driverId)" style="html=1;verticalAlign=bottom;endArrow=block;edgeStyle=elbowEdgeStyle;elbow=vertical;curved=0;rounded=0;" parent="1" source="30" target="140" edge="1"><mxGeometry x="-0.0127" relative="1" as="geometry"><mxPoint x="820" y="1259.74" as="sourcePoint"/><Array as="points"><mxPoint x="980" y="680"/><mxPoint x="1020" y="710"/><mxPoint x="990" y="700"/><mxPoint x="1020" y="830.74"/><mxPoint x="865" y="1349.74"/><mxPoint x="1195" y="1339.74"/><mxPoint x="1045" y="1339.74"/><mxPoint x="935" y="1319.74"/><mxPoint x="905" y="1255.3033802816901"/><mxPoint x="925" y="1255.3033802816901"/><mxPoint x="925" y="1266.9230985915494"/><mxPoint x="945" y="1203.0146478873241"/><mxPoint x="955" y="1051.958309859155"/><mxPoint x="975" y="1040.3385915492959"/><mxPoint x="915" y="1028.7188732394366"/><mxPoint x="955" y="1017.0991549295775"/><mxPoint x="995" y="1005.4794366197184"/><mxPoint x="905" y="959.0005633802817"/><mxPoint x="970" y="947.3808450704225"/></Array><mxPoint x="1050" y="830.74" as="targetPoint"/><mxPoint as="offset"/></mxGeometry></mxCell><mxCell id="156" value="rerturn(driver)" style="html=1;verticalAlign=bottom;endArrow=open;dashed=1;endSize=8;edgeStyle=elbowEdgeStyle;elbow=vertical;curved=0;rounded=0;" parent="1" source="140" target="30" edge="1"><mxGeometry x="0.1071" relative="1" as="geometry"><mxPoint x="740" y="1280.74" as="targetPoint"/><Array as="points"><mxPoint x="1020" y="710"/><mxPoint x="1020" y="740"/><mxPoint x="1040" y="860.74"/><mxPoint x="950" y="890.74"/><mxPoint x="995" y="1350.74"/><mxPoint x="855" y="1300.74"/><mxPoint x="885" y="1255.74"/><mxPoint x="905" y="1125.74"/><mxPoint x="915" y="1125.74"/><mxPoint x="845" y="1106.21"/><mxPoint x="890" y="1066.21"/><mxPoint x="910" y="1076.21"/></Array><mxPoint x="1050" y="860.74" as="sourcePoint"/><mxPoint as="offset"/></mxGeometry></mxCell><mxCell id="199" value="rerturn(error)" style="html=1;verticalAlign=bottom;endArrow=open;dashed=1;endSize=8;edgeStyle=elbowEdgeStyle;elbow=vertical;curved=0;rounded=0;" parent="1" source="17" target="11" edge="1"><mxGeometry x="0.55" relative="1" as="geometry"><mxPoint x="233" y="774" as="targetPoint"/><Array as="points"><mxPoint x="480" y="600"/><mxPoint x="480" y="740"/><mxPoint x="368" y="774"/><mxPoint x="338" y="754"/><mxPoint x="388" y="724"/><mxPoint x="488" y="794"/><mxPoint x="348" y="744"/><mxPoint x="378" y="699"/><mxPoint x="398" y="569"/><mxPoint x="408" y="569"/><mxPoint x="338" y="549.47"/><mxPoint x="383" y="509.47"/><mxPoint x="403" y="519.47"/></Array><mxPoint x="513" y="774" as="sourcePoint"/><mxPoint as="offset"/></mxGeometry></mxCell><mxCell id="209" value="1.1.1.7.3:&lt;br&gt;checkDate(date)" style="html=1;verticalAlign=bottom;endArrow=block;edgeStyle=elbowEdgeStyle;elbow=vertical;curved=0;rounded=0;" parent="1" source="30" target="21" edge="1"><mxGeometry x="0.5146" y="-5" relative="1" as="geometry"><mxPoint x="940" y="840.74" as="sourcePoint"/><Array as="points"><mxPoint x="1000" y="780"/><mxPoint x="990" y="810"/><mxPoint x="1110" y="830"/><mxPoint x="1050" y="820"/><mxPoint x="1010" y="945"/><mxPoint x="1030" y="840.74"/><mxPoint x="875" y="1359.74"/><mxPoint x="1205" y="1349.74"/><mxPoint x="1055" y="1349.74"/><mxPoint x="945" y="1329.74"/><mxPoint x="915" y="1265.3033802816901"/><mxPoint x="935" y="1265.3033802816901"/><mxPoint x="935" y="1276.9230985915494"/><mxPoint x="955" y="1213.0146478873241"/><mxPoint x="965" y="1061.958309859155"/><mxPoint x="985" y="1050.3385915492959"/><mxPoint x="925" y="1038.7188732394366"/><mxPoint x="965" y="1027.0991549295775"/><mxPoint x="1005" y="1015.4794366197184"/><mxPoint x="915" y="969.0005633802817"/><mxPoint x="980" y="957.3808450704225"/></Array><mxPoint x="1060" y="840.74" as="targetPoint"/><mxPoint as="offset"/></mxGeometry></mxCell><mxCell id="210" value="rerturn(dAvailable)" style="html=1;verticalAlign=bottom;endArrow=open;dashed=1;endSize=8;edgeStyle=elbowEdgeStyle;elbow=vertical;curved=0;rounded=0;" parent="1" source="21" target="30" edge="1"><mxGeometry x="0.4142" relative="1" as="geometry"><mxPoint x="940" y="870.74" as="targetPoint"/><Array as="points"><mxPoint x="1120" y="800"/><mxPoint x="1140" y="834"/><mxPoint x="1130" y="834"/><mxPoint x="1120" y="840"/><mxPoint x="1100" y="850"/><mxPoint x="1010" y="970"/><mxPoint x="1050" y="870.74"/><mxPoint x="960" y="900.74"/><mxPoint x="1005" y="1360.74"/><mxPoint x="865" y="1310.74"/><mxPoint x="895" y="1265.74"/><mxPoint x="915" y="1135.74"/><mxPoint x="925" y="1135.74"/><mxPoint x="855" y="1116.21"/><mxPoint x="900" y="1076.21"/><mxPoint x="920" y="1086.21"/></Array><mxPoint x="1060" y="870.74" as="sourcePoint"/><mxPoint as="offset"/></mxGeometry></mxCell><mxCell id="203" value="&lt;b&gt;alt&lt;/b&gt;" style="rounded=0;whiteSpace=wrap;html=1;" parent="1" vertex="1"><mxGeometry x="818" y="757" width="45.88486416558862" height="16.578947368421055" as="geometry"/></mxCell><mxCell id="204" value="[truck != null]" style="text;html=1;align=center;verticalAlign=middle;whiteSpace=wrap;rounded=0;" parent="1" vertex="1"><mxGeometry x="817" y="773" width="77.82" height="16.58" as="geometry"/></mxCell><mxCell id="254" value="1.1.1.7.4:&lt;br&gt;checkDate(date)" style="html=1;verticalAlign=bottom;endArrow=block;edgeStyle=elbowEdgeStyle;elbow=vertical;curved=0;rounded=0;" parent="1" source="30" target="252" edge="1"><mxGeometry x="0.0435" y="-9" relative="1" as="geometry"><mxPoint x="932" y="873" as="sourcePoint"/><Array as="points"><mxPoint x="1170" y="830"/><mxPoint x="1239" y="865"/><mxPoint x="992" y="873"/><mxPoint x="1112" y="893"/><mxPoint x="1052" y="883"/><mxPoint x="1012" y="1008"/><mxPoint x="1032" y="903.74"/><mxPoint x="877" y="1422.74"/><mxPoint x="1207" y="1412.74"/><mxPoint x="1057" y="1412.74"/><mxPoint x="947" y="1392.74"/><mxPoint x="917" y="1328.3033802816901"/><mxPoint x="937" y="1328.3033802816901"/><mxPoint x="937" y="1339.9230985915494"/><mxPoint x="957" y="1276.0146478873241"/><mxPoint x="967" y="1124.958309859155"/><mxPoint x="987" y="1113.3385915492959"/><mxPoint x="927" y="1101.7188732394366"/><mxPoint x="967" y="1090.0991549295775"/><mxPoint x="1007" y="1078.4794366197184"/><mxPoint x="917" y="1032.0005633802816"/><mxPoint x="982" y="1020.3808450704225"/></Array><mxPoint x="1178" y="873" as="targetPoint"/><mxPoint as="offset"/></mxGeometry></mxCell><mxCell id="255" value="rerturn(tAvailable)" style="html=1;verticalAlign=bottom;endArrow=open;dashed=1;endSize=8;edgeStyle=elbowEdgeStyle;elbow=vertical;curved=0;rounded=0;" parent="1" source="252" target="30" edge="1"><mxGeometry x="-0.6812" relative="1" as="geometry"><mxPoint x="940" y="844" as="targetPoint"/><Array as="points"><mxPoint x="1160" y="850"/><mxPoint x="1040" y="890"/><mxPoint x="1150" y="844"/><mxPoint x="1140" y="844"/><mxPoint x="1130" y="850"/><mxPoint x="1110" y="860"/><mxPoint x="1020" y="980"/><mxPoint x="1060" y="880.74"/><mxPoint x="970" y="910.74"/><mxPoint x="1015" y="1370.74"/><mxPoint x="875" y="1320.74"/><mxPoint x="905" y="1275.74"/><mxPoint x="925" y="1145.74"/><mxPoint x="935" y="1145.74"/><mxPoint x="865" y="1126.21"/><mxPoint x="910" y="1086.21"/><mxPoint x="930" y="1096.21"/></Array><mxPoint x="1186" y="844" as="sourcePoint"/><mxPoint as="offset"/></mxGeometry></mxCell><mxCell id="257" value="&lt;b&gt;alt&lt;/b&gt;" style="rounded=0;whiteSpace=wrap;html=1;" parent="1" vertex="1"><mxGeometry x="831" y="858" width="50" height="20" as="geometry"/></mxCell><mxCell id="258" value="[tAvailable]" style="text;html=1;align=center;verticalAlign=middle;whiteSpace=wrap;rounded=0;" parent="1" vertex="1"><mxGeometry x="833.9996" y="880" width="56.03039999999999" height="13.264" as="geometry"/></mxCell><mxCell id="341" value="1.1.1.7.5: &lt;br&gt;checkCompatability(truck,driver)&lt;br&gt;returns(compatible)" style="text;html=1;align=center;verticalAlign=middle;whiteSpace=wrap;rounded=0;" parent="1" vertex="1"><mxGeometry x="990" y="863.26" width="105.42" height="30" as="geometry"/></mxCell><mxCell id="343" value="&lt;b&gt;alt&lt;/b&gt;" style="rounded=0;whiteSpace=wrap;html=1;" parent="1" vertex="1"><mxGeometry x="839" y="908" width="50" height="20" as="geometry"/></mxCell><mxCell id="344" value="[compatible]" style="text;html=1;align=center;verticalAlign=middle;whiteSpace=wrap;rounded=0;" parent="1" vertex="1"><mxGeometry x="970.9996" y="908" width="56.03039999999999" height="13.264" as="geometry"/></mxCell><mxCell id="345" value="" style="endArrow=none;dashed=1;html=1;dashPattern=1 3;strokeWidth=2;rounded=0;" parent="1" edge="1"><mxGeometry width="50" height="50" relative="1" as="geometry"><mxPoint x="840" y="932" as="sourcePoint"/><mxPoint x="1040" y="932" as="targetPoint"/></mxGeometry></mxCell><mxCell id="347" value="[!compatible]" style="text;html=1;align=center;verticalAlign=middle;whiteSpace=wrap;rounded=0;" parent="1" vertex="1"><mxGeometry x="971.9996" y="935" width="56.03039999999999" height="13.264" as="geometry"/></mxCell><mxCell id="348" value="rerturn(error)" style="html=1;verticalAlign=bottom;endArrow=open;dashed=1;endSize=8;edgeStyle=elbowEdgeStyle;elbow=vertical;curved=0;rounded=0;" parent="1" source="30" target="11" edge="1"><mxGeometry x="-0.0886" relative="1" as="geometry"><mxPoint x="325" y="610" as="targetPoint"/><Array as="points"><mxPoint x="700" y="940"/><mxPoint x="740" y="1000"/><mxPoint x="560" y="790"/><mxPoint x="490" y="750"/><mxPoint x="378" y="784"/><mxPoint x="348" y="764"/><mxPoint x="398" y="734"/><mxPoint x="498" y="804"/><mxPoint x="358" y="754"/><mxPoint x="388" y="709"/><mxPoint x="408" y="579"/><mxPoint x="418" y="579"/><mxPoint x="348" y="559.47"/><mxPoint x="393" y="519.47"/><mxPoint x="413" y="529.47"/></Array><mxPoint x="525" y="610" as="sourcePoint"/><mxPoint as="offset"/></mxGeometry></mxCell><mxCell id="349" value="return" style="html=1;verticalAlign=bottom;endArrow=open;dashed=1;endSize=8;edgeStyle=elbowEdgeStyle;elbow=vertical;curved=0;rounded=0;" parent="1" source="30" target="17" edge="1"><mxGeometry x="-0.2405" relative="1" as="geometry"><mxPoint x="535" y="1010" as="targetPoint"/><Array as="points"><mxPoint x="780" y="960"/><mxPoint x="760" y="1020"/><mxPoint x="750" y="1010"/><mxPoint x="570" y="800"/><mxPoint x="500" y="760"/><mxPoint x="388" y="794"/><mxPoint x="358" y="774"/><mxPoint x="408" y="744"/><mxPoint x="508" y="814"/><mxPoint x="368" y="764"/><mxPoint x="398" y="719"/><mxPoint x="418" y="589"/><mxPoint x="428" y="589"/><mxPoint x="358" y="569.47"/><mxPoint x="403" y="529.47"/><mxPoint x="423" y="539.47"/></Array><mxPoint x="930" y="1010" as="sourcePoint"/><mxPoint as="offset"/></mxGeometry></mxCell><mxCell id="153" value="1.1.1.7.2: &lt;br&gt;getTruck(truckId)" style="text;html=1;align=center;verticalAlign=middle;whiteSpace=wrap;rounded=0;" parent="1" vertex="1"><mxGeometry x="948" y="721" width="105.42" height="30" as="geometry"/></mxCell><mxCell id="356" value="rerturn(error)" style="html=1;verticalAlign=bottom;endArrow=open;dashed=1;endSize=8;edgeStyle=elbowEdgeStyle;elbow=vertical;curved=0;rounded=0;" parent="1" source="30" target="11" edge="1"><mxGeometry x="-0.0886" relative="1" as="geometry"><mxPoint x="545" y="960" as="targetPoint"/><Array as="points"><mxPoint x="840" y="980"/><mxPoint x="770" y="990"/><mxPoint x="720" y="960"/><mxPoint x="760" y="1020"/><mxPoint x="580" y="810"/><mxPoint x="510" y="770"/><mxPoint x="398" y="804"/><mxPoint x="368" y="784"/><mxPoint x="418" y="754"/><mxPoint x="518" y="824"/><mxPoint x="378" y="774"/><mxPoint x="408" y="729"/><mxPoint x="428" y="599"/><mxPoint x="438" y="599"/><mxPoint x="368" y="579.47"/><mxPoint x="413" y="539.47"/><mxPoint x="433" y="549.47"/></Array><mxPoint x="940.0000000000005" y="960" as="sourcePoint"/><mxPoint as="offset"/></mxGeometry></mxCell><mxCell id="358" value="[!dAvailable]" style="text;html=1;align=center;verticalAlign=middle;whiteSpace=wrap;rounded=0;" parent="1" vertex="1"><mxGeometry x="971.9996" y="1003" width="56.03039999999999" height="13.264" as="geometry"/></mxCell><mxCell id="359" value="rerturn(error)" style="html=1;verticalAlign=bottom;endArrow=open;dashed=1;endSize=8;edgeStyle=elbowEdgeStyle;elbow=vertical;curved=0;rounded=0;" parent="1" source="30" target="11" edge="1"><mxGeometry x="-0.0886" relative="1" as="geometry"><mxPoint x="310" y="1010" as="targetPoint"/><Array as="points"><mxPoint x="650" y="1010"/><mxPoint x="850" y="990"/><mxPoint x="780" y="1000"/><mxPoint x="730" y="970"/><mxPoint x="770" y="1030"/><mxPoint x="590" y="820"/><mxPoint x="520" y="780"/><mxPoint x="408" y="814"/><mxPoint x="378" y="794"/><mxPoint x="428" y="764"/><mxPoint x="528" y="834"/><mxPoint x="388" y="784"/><mxPoint x="418" y="739"/><mxPoint x="438" y="609"/><mxPoint x="448" y="609"/><mxPoint x="378" y="589.47"/><mxPoint x="423" y="549.47"/><mxPoint x="443" y="559.47"/></Array><mxPoint x="930" y="990" as="sourcePoint"/><mxPoint as="offset"/></mxGeometry></mxCell><mxCell id="361" value="[truck = null]" style="text;html=1;align=center;verticalAlign=middle;whiteSpace=wrap;rounded=0;" parent="1" vertex="1"><mxGeometry x="960" y="1027" width="77.82" height="16.58" as="geometry"/></mxCell><mxCell id="363" value="rerturn(error)" style="html=1;verticalAlign=bottom;endArrow=open;dashed=1;endSize=8;edgeStyle=elbowEdgeStyle;elbow=vertical;curved=0;rounded=0;" parent="1" source="30" target="11" edge="1"><mxGeometry x="-0.0886" relative="1" as="geometry"><mxPoint x="535" y="1020" as="targetPoint"/><Array as="points"><mxPoint x="803" y="1034"/><mxPoint x="730" y="1040"/><mxPoint x="660" y="1020"/><mxPoint x="860" y="1000"/><mxPoint x="790" y="1010"/><mxPoint x="740" y="980"/><mxPoint x="780" y="1040"/><mxPoint x="600" y="830"/><mxPoint x="530" y="790"/><mxPoint x="418" y="824"/><mxPoint x="388" y="804"/><mxPoint x="438" y="774"/><mxPoint x="538" y="844"/><mxPoint x="398" y="794"/><mxPoint x="428" y="749"/><mxPoint x="448" y="619"/><mxPoint x="458" y="619"/><mxPoint x="388" y="599.47"/><mxPoint x="433" y="559.47"/><mxPoint x="453" y="569.47"/></Array><mxPoint x="930" y="1020" as="sourcePoint"/><mxPoint as="offset"/></mxGeometry></mxCell><mxCell id="406" value="&lt;b&gt;alt&lt;/b&gt;" style="rounded=0;whiteSpace=wrap;html=1;" parent="1" vertex="1"><mxGeometry x="733" y="752" width="36" height="17" as="geometry"/></mxCell><mxCell id="407" value="[driver != null]" style="text;html=1;align=center;verticalAlign=middle;whiteSpace=wrap;rounded=0;" parent="1" vertex="1"><mxGeometry x="720" y="770" width="77.82" height="16.58" as="geometry"/></mxCell><mxCell id="408" value="[driver = null]" style="text;html=1;align=center;verticalAlign=middle;whiteSpace=wrap;rounded=0;" parent="1" vertex="1"><mxGeometry x="962" y="1051" width="77.82" height="16.58" as="geometry"/></mxCell><mxCell id="409" value="rerturn(error)" style="html=1;verticalAlign=bottom;endArrow=open;dashed=1;endSize=8;edgeStyle=elbowEdgeStyle;elbow=vertical;curved=0;rounded=0;" parent="1" source="30" target="11" edge="1"><mxGeometry x="-0.0886" relative="1" as="geometry"><mxPoint x="535" y="1050" as="targetPoint"/><Array as="points"><mxPoint x="730" y="1060"/><mxPoint x="670" y="1030"/><mxPoint x="870" y="1010"/><mxPoint x="800" y="1020"/><mxPoint x="750" y="990"/><mxPoint x="790" y="1050"/><mxPoint x="610" y="840"/><mxPoint x="540" y="800"/><mxPoint x="428" y="834"/><mxPoint x="398" y="814"/><mxPoint x="448" y="784"/><mxPoint x="548" y="854"/><mxPoint x="408" y="804"/><mxPoint x="438" y="759"/><mxPoint x="458" y="629"/><mxPoint x="468" y="629"/><mxPoint x="398" y="609.47"/><mxPoint x="443" y="569.47"/><mxPoint x="463" y="579.47"/></Array><mxPoint x="930" y="1050" as="sourcePoint"/><mxPoint as="offset"/></mxGeometry></mxCell><mxCell id="412" value="1.1.1.8:&lt;br&gt;approveDelivery()" style="html=1;verticalAlign=bottom;endArrow=block;edgeStyle=elbowEdgeStyle;elbow=vertical;curved=0;rounded=0;" parent="1" source="17" target="411" edge="1"><mxGeometry x="-0.0127" relative="1" as="geometry"><mxPoint x="535" y="680" as="sourcePoint"/><Array as="points"><mxPoint x="630" y="1090"/><mxPoint x="760" y="690"/><mxPoint x="750" y="700"/><mxPoint x="730" y="800"/><mxPoint x="670" y="790"/><mxPoint x="680" y="840"/><mxPoint x="710" y="820"/><mxPoint x="780" y="880"/><mxPoint x="660" y="810"/><mxPoint x="680" y="770"/><mxPoint x="640" y="750"/><mxPoint x="680" y="730"/><mxPoint x="580" y="820"/><mxPoint x="910" y="810"/><mxPoint x="760" y="810"/><mxPoint x="650" y="790"/><mxPoint x="620" y="725.5633802816902"/><mxPoint x="640" y="725.5633802816902"/><mxPoint x="640" y="737.1830985915494"/><mxPoint x="660" y="673.274647887324"/><mxPoint x="670" y="522.2183098591549"/><mxPoint x="690" y="510.5985915492958"/><mxPoint x="630" y="498.97887323943667"/><mxPoint x="670" y="487.3591549295775"/><mxPoint x="710" y="475.7394366197184"/><mxPoint x="620" y="429.2605633802817"/><mxPoint x="685" y="417.6408450704226"/></Array><mxPoint x="930" y="680" as="targetPoint"/><mxPoint as="offset"/></mxGeometry></mxCell><mxCell id="20" value="Driver" style="shape=umlLifeline;perimeter=lifelinePerimeter;whiteSpace=wrap;html=1;container=0;dropTarget=0;collapsible=0;recursiveResize=0;outlineConnect=0;portConstraint=eastwest;newEdgeStyle={&quot;edgeStyle&quot;:&quot;elbowEdgeStyle&quot;,&quot;elbow&quot;:&quot;vertical&quot;,&quot;curved&quot;:0,&quot;rounded&quot;:0};rounded=0;" parent="1" vertex="1"><mxGeometry x="1124" y="20" width="100" height="2310" as="geometry"/></mxCell><mxCell id="21" value="" style="html=1;points=[];perimeter=orthogonalPerimeter;outlineConnect=0;targetShapes=umlLifeline;portConstraint=eastwest;newEdgeStyle={&quot;edgeStyle&quot;:&quot;elbowEdgeStyle&quot;,&quot;elbow&quot;:&quot;vertical&quot;,&quot;curved&quot;:0,&quot;rounded&quot;:0};rounded=0;" parent="20" vertex="1"><mxGeometry x="45" y="760" width="10" height="25" as="geometry"/></mxCell><mxCell id="138" value="" style="group;rounded=0;" parent="1" vertex="1" connectable="0"><mxGeometry x="1000" y="20" width="110" height="2310" as="geometry"/></mxCell><mxCell id="139" value="EmployeeController" style="shape=umlLifeline;perimeter=lifelinePerimeter;whiteSpace=wrap;html=1;container=0;dropTarget=0;collapsible=0;recursiveResize=0;outlineConnect=0;portConstraint=eastwest;newEdgeStyle={&quot;edgeStyle&quot;:&quot;elbowEdgeStyle&quot;,&quot;elbow&quot;:&quot;vertical&quot;,&quot;curved&quot;:0,&quot;rounded&quot;:0};rounded=0;" parent="138" vertex="1"><mxGeometry width="110" height="2310" as="geometry"/></mxCell><mxCell id="140" value="" style="html=1;points=[];perimeter=orthogonalPerimeter;outlineConnect=0;targetShapes=umlLifeline;portConstraint=eastwest;newEdgeStyle={&quot;edgeStyle&quot;:&quot;elbowEdgeStyle&quot;,&quot;elbow&quot;:&quot;vertical&quot;,&quot;curved&quot;:0,&quot;rounded&quot;:0};rounded=0;" parent="138" vertex="1"><mxGeometry x="50" y="658.0008474576272" width="10" height="35.59322033898305" as="geometry"/></mxCell><mxCell id="515" value="" style="html=1;points=[];perimeter=orthogonalPerimeter;outlineConnect=0;targetShapes=umlLifeline;portConstraint=eastwest;newEdgeStyle={&quot;edgeStyle&quot;:&quot;elbowEdgeStyle&quot;,&quot;elbow&quot;:&quot;vertical&quot;,&quot;curved&quot;:0,&quot;rounded&quot;:0};rounded=0;" parent="138" vertex="1"><mxGeometry x="51" y="2016" width="9.17" height="55" as="geometry"/></mxCell><mxCell id="98" value="" style="group;rounded=0;" parent="1" vertex="1" connectable="0"><mxGeometry x="650" y="20" width="180.42000000000002" height="2310" as="geometry"/></mxCell><mxCell id="85" value="" style="group;rounded=0;" parent="98" vertex="1" connectable="0"><mxGeometry width="180.42000000000002" height="2310" as="geometry"/></mxCell><mxCell id="97" value="" style="group;rounded=0;" parent="85" vertex="1" connectable="0"><mxGeometry width="180.42000000000002" height="2310" as="geometry"/></mxCell><mxCell id="82" value="Delivery" style="shape=umlLifeline;perimeter=lifelinePerimeter;whiteSpace=wrap;html=1;container=0;dropTarget=0;collapsible=0;recursiveResize=0;outlineConnect=0;portConstraint=eastwest;newEdgeStyle={&quot;edgeStyle&quot;:&quot;elbowEdgeStyle&quot;,&quot;elbow&quot;:&quot;vertical&quot;,&quot;curved&quot;:0,&quot;rounded&quot;:0};rounded=0;" parent="97" vertex="1"><mxGeometry width="100" height="2310" as="geometry"/></mxCell><mxCell id="96" value="" style="html=1;points=[];perimeter=orthogonalPerimeter;outlineConnect=0;targetShapes=umlLifeline;portConstraint=eastwest;newEdgeStyle={&quot;edgeStyle&quot;:&quot;elbowEdgeStyle&quot;,&quot;elbow&quot;:&quot;vertical&quot;,&quot;curved&quot;:0,&quot;rounded&quot;:0};rounded=0;" parent="97" vertex="1"><mxGeometry x="44.17" y="250" width="10" height="30" as="geometry"/></mxCell><mxCell id="416" value="" style="html=1;points=[];perimeter=orthogonalPerimeter;outlineConnect=0;targetShapes=umlLifeline;portConstraint=eastwest;newEdgeStyle={&quot;edgeStyle&quot;:&quot;elbowEdgeStyle&quot;,&quot;elbow&quot;:&quot;vertical&quot;,&quot;curved&quot;:0,&quot;rounded&quot;:0};rounded=0;" parent="97" vertex="1"><mxGeometry x="45" y="1089.998691733675" width="9.166666666666666" height="30.231308266324877" as="geometry"/></mxCell><mxCell id="417" value="" style="edgeStyle=elbowEdgeStyle;elbow=vertical;endArrow=classic;html=1;rounded=0;" parent="97" source="416" target="416" edge="1"><mxGeometry width="50" height="50" relative="1" as="geometry"><mxPoint x="-761.6633333333334" y="1320.038633648221" as="sourcePoint"/><mxPoint x="-715.83" y="1270.4282816214318" as="targetPoint"/></mxGeometry></mxCell><mxCell id="84" value="" style="html=1;points=[];perimeter=orthogonalPerimeter;outlineConnect=0;targetShapes=umlLifeline;portConstraint=eastwest;newEdgeStyle={&quot;edgeStyle&quot;:&quot;elbowEdgeStyle&quot;,&quot;elbow&quot;:&quot;vertical&quot;,&quot;curved&quot;:0,&quot;rounded&quot;:0};rounded=0;" parent="97" vertex="1"><mxGeometry x="44.17" y="190" width="10" height="30" as="geometry"/></mxCell><mxCell id="418" value="1.1.1.8.1: &lt;br&gt;getSourceUnloadCount()&lt;br&gt;returns(countS)" style="text;html=1;align=center;verticalAlign=middle;whiteSpace=wrap;rounded=0;" parent="97" vertex="1"><mxGeometry x="69.99999999999996" y="1067" width="105.42" height="30" as="geometry"/></mxCell><mxCell id="411" value="" style="html=1;points=[];perimeter=orthogonalPerimeter;outlineConnect=0;targetShapes=umlLifeline;portConstraint=eastwest;newEdgeStyle={&quot;edgeStyle&quot;:&quot;elbowEdgeStyle&quot;,&quot;elbow&quot;:&quot;vertical&quot;,&quot;curved&quot;:0,&quot;rounded&quot;:0};rounded=0;" parent="97" vertex="1"><mxGeometry x="45" y="1070" width="10" height="680" as="geometry"/></mxCell><mxCell id="443" value="" style="edgeStyle=elbowEdgeStyle;elbow=vertical;endArrow=classic;html=1;rounded=0;" parent="97" source="445" target="445" edge="1"><mxGeometry width="50" height="50" relative="1" as="geometry"><mxPoint x="-1411.6633333333334" y="1491.038633648221" as="sourcePoint"/><mxPoint x="-1365.83" y="1441.4282816214318" as="targetPoint"/></mxGeometry></mxCell><mxCell id="444" value="1.1.1.8.4: &lt;br&gt;checkRegions()&lt;br&gt;returns(matching)" style="text;html=1;align=center;verticalAlign=middle;whiteSpace=wrap;rounded=0;" parent="97" vertex="1"><mxGeometry x="75" y="1260" width="105.42" height="30" as="geometry"/></mxCell><mxCell id="445" value="" style="html=1;points=[];perimeter=orthogonalPerimeter;outlineConnect=0;targetShapes=umlLifeline;portConstraint=eastwest;newEdgeStyle={&quot;edgeStyle&quot;:&quot;elbowEdgeStyle&quot;,&quot;elbow&quot;:&quot;vertical&quot;,&quot;curved&quot;:0,&quot;rounded&quot;:0};rounded=0;" parent="97" vertex="1"><mxGeometry x="45" y="1280.998691733675" width="9.166666666666666" height="30.231308266324877" as="geometry"/></mxCell><mxCell id="448" value="" style="edgeStyle=elbowEdgeStyle;elbow=vertical;endArrow=classic;html=1;rounded=0;" parent="97" source="450" target="450" edge="1"><mxGeometry width="50" height="50" relative="1" as="geometry"><mxPoint x="-2061.6633333333334" y="1541.038633648221" as="sourcePoint"/><mxPoint x="-2015.83" y="1491.4282816214318" as="targetPoint"/></mxGeometry></mxCell><mxCell id="449" value="1.1.1.8.5: &lt;br&gt;checkEmptyAtLast()&lt;br&gt;returns(empty)" style="text;html=1;align=center;verticalAlign=middle;whiteSpace=wrap;rounded=0;" parent="97" vertex="1"><mxGeometry x="75" y="1330" width="105.42" height="30" as="geometry"/></mxCell><mxCell id="450" value="" style="html=1;points=[];perimeter=orthogonalPerimeter;outlineConnect=0;targetShapes=umlLifeline;portConstraint=eastwest;newEdgeStyle={&quot;edgeStyle&quot;:&quot;elbowEdgeStyle&quot;,&quot;elbow&quot;:&quot;vertical&quot;,&quot;curved&quot;:0,&quot;rounded&quot;:0};rounded=0;" parent="97" vertex="1"><mxGeometry x="45" y="1350.998691733675" width="9.166666666666666" height="30.231308266324877" as="geometry"/></mxCell><mxCell id="459" value="" style="edgeStyle=elbowEdgeStyle;elbow=vertical;endArrow=classic;html=1;rounded=0;" parent="97" source="461" target="461" edge="1"><mxGeometry width="50" height="50" relative="1" as="geometry"><mxPoint x="-2711.6633333333334" y="1591.038633648221" as="sourcePoint"/><mxPoint x="-2665.83" y="1541.4282816214318" as="targetPoint"/></mxGeometry></mxCell><mxCell id="460" value="1.1.1.8.6: &lt;br&gt;approveItemDeliveries()" style="text;html=1;align=center;verticalAlign=middle;whiteSpace=wrap;rounded=0;" parent="97" vertex="1"><mxGeometry x="76" y="1395" width="105.42" height="30" as="geometry"/></mxCell><mxCell id="461" value="" style="html=1;points=[];perimeter=orthogonalPerimeter;outlineConnect=0;targetShapes=umlLifeline;portConstraint=eastwest;newEdgeStyle={&quot;edgeStyle&quot;:&quot;elbowEdgeStyle&quot;,&quot;elbow&quot;:&quot;vertical&quot;,&quot;curved&quot;:0,&quot;rounded&quot;:0};rounded=0;" parent="97" vertex="1"><mxGeometry x="45" y="1420.998691733675" width="9.166666666666666" height="30.231308266324877" as="geometry"/></mxCell><mxCell id="491" value="" style="html=1;points=[];perimeter=orthogonalPerimeter;outlineConnect=0;targetShapes=umlLifeline;portConstraint=eastwest;newEdgeStyle={&quot;edgeStyle&quot;:&quot;elbowEdgeStyle&quot;,&quot;elbow&quot;:&quot;vertical&quot;,&quot;curved&quot;:0,&quot;rounded&quot;:0};rounded=0;" parent="97" vertex="1"><mxGeometry x="45.41999999999996" y="1789.998691733675" width="9.166666666666666" height="30.231308266324877" as="geometry"/></mxCell><mxCell id="16" value="DeliveryController" style="shape=umlLifeline;perimeter=lifelinePerimeter;whiteSpace=wrap;html=1;container=0;dropTarget=0;collapsible=0;recursiveResize=0;outlineConnect=0;portConstraint=eastwest;newEdgeStyle={&quot;edgeStyle&quot;:&quot;elbowEdgeStyle&quot;,&quot;elbow&quot;:&quot;vertical&quot;,&quot;curved&quot;:0,&quot;rounded&quot;:0};rounded=0;" parent="1" vertex="1"><mxGeometry x="470" y="20" width="100" height="2310" as="geometry"/></mxCell><mxCell id="17" value="" style="html=1;points=[];perimeter=orthogonalPerimeter;outlineConnect=0;targetShapes=umlLifeline;portConstraint=eastwest;newEdgeStyle={&quot;edgeStyle&quot;:&quot;elbowEdgeStyle&quot;,&quot;elbow&quot;:&quot;vertical&quot;,&quot;curved&quot;:0,&quot;rounded&quot;:0};rounded=0;" parent="16" vertex="1"><mxGeometry x="45" y="110" width="10" height="2160" as="geometry"/></mxCell><mxCell id="10" value="DeliveryService" style="shape=umlLifeline;perimeter=lifelinePerimeter;whiteSpace=wrap;html=1;container=0;dropTarget=0;collapsible=0;recursiveResize=0;outlineConnect=0;portConstraint=eastwest;newEdgeStyle={&quot;edgeStyle&quot;:&quot;elbowEdgeStyle&quot;,&quot;elbow&quot;:&quot;vertical&quot;,&quot;curved&quot;:0,&quot;rounded&quot;:0};rounded=0;" parent="1" vertex="1"><mxGeometry x="260" y="20" width="100" height="2300" as="geometry"/></mxCell><mxCell id="11" value="" style="html=1;points=[];perimeter=orthogonalPerimeter;outlineConnect=0;targetShapes=umlLifeline;portConstraint=eastwest;newEdgeStyle={&quot;edgeStyle&quot;:&quot;elbowEdgeStyle&quot;,&quot;elbow&quot;:&quot;vertical&quot;,&quot;curved&quot;:0,&quot;rounded&quot;:0};rounded=0;" parent="10" vertex="1"><mxGeometry x="45" y="90" width="10" height="2200" as="geometry"/></mxCell><mxCell id="8" value="SystemFacade" style="shape=umlLifeline;perimeter=lifelinePerimeter;whiteSpace=wrap;html=1;container=0;dropTarget=0;collapsible=0;recursiveResize=0;outlineConnect=0;portConstraint=eastwest;newEdgeStyle={&quot;edgeStyle&quot;:&quot;elbowEdgeStyle&quot;,&quot;elbow&quot;:&quot;vertical&quot;,&quot;curved&quot;:0,&quot;rounded&quot;:0};rounded=0;" parent="1" vertex="1"><mxGeometry x="120" y="20" width="100" height="2310" as="geometry"/></mxCell><mxCell id="9" value="" style="html=1;points=[];perimeter=orthogonalPerimeter;outlineConnect=0;targetShapes=umlLifeline;portConstraint=eastwest;newEdgeStyle={&quot;edgeStyle&quot;:&quot;elbowEdgeStyle&quot;,&quot;elbow&quot;:&quot;vertical&quot;,&quot;curved&quot;:0,&quot;rounded&quot;:0};rounded=0;" parent="8" vertex="1"><mxGeometry x="45" y="70" width="10" height="2230" as="geometry"/></mxCell><mxCell id="14" value="DeliveryManager" style="shape=umlLifeline;perimeter=lifelinePerimeter;whiteSpace=wrap;html=1;container=0;dropTarget=0;collapsible=0;recursiveResize=0;outlineConnect=0;portConstraint=eastwest;newEdgeStyle={&quot;edgeStyle&quot;:&quot;elbowEdgeStyle&quot;,&quot;elbow&quot;:&quot;vertical&quot;,&quot;curved&quot;:0,&quot;rounded&quot;:0};rounded=0;" parent="1" vertex="1"><mxGeometry y="20" width="100" height="2290" as="geometry"/></mxCell><mxCell id="421" value="&lt;b&gt;alt&lt;/b&gt;" style="rounded=0;whiteSpace=wrap;html=1;" parent="1" vertex="1"><mxGeometry x="613" y="1145" width="52" height="22" as="geometry"/></mxCell><mxCell id="426" value="[countS = 0]" style="text;html=1;align=center;verticalAlign=middle;whiteSpace=wrap;rounded=0;" parent="1" vertex="1"><mxGeometry x="614" y="1161" width="76" height="30" as="geometry"/></mxCell><mxCell id="428" value="" style="html=1;points=[];perimeter=orthogonalPerimeter;outlineConnect=0;targetShapes=umlLifeline;portConstraint=eastwest;newEdgeStyle={&quot;edgeStyle&quot;:&quot;elbowEdgeStyle&quot;,&quot;elbow&quot;:&quot;vertical&quot;,&quot;curved&quot;:0,&quot;rounded&quot;:0};rounded=0;" parent="1" vertex="1"><mxGeometry x="695" y="1172.998691733675" width="9.166666666666666" height="30.231308266324877" as="geometry"/></mxCell><mxCell id="429" value="" style="edgeStyle=elbowEdgeStyle;elbow=vertical;endArrow=classic;html=1;rounded=0;" parent="1" source="428" target="428" edge="1"><mxGeometry width="50" height="50" relative="1" as="geometry"><mxPoint x="-761.6633333333334" y="1383.038633648221" as="sourcePoint"/><mxPoint x="-715.83" y="1333.4282816214318" as="targetPoint"/></mxGeometry></mxCell><mxCell id="430" value="1.1.1.8.2: &lt;br&gt;getLastStopLoadCount()&lt;br&gt;returns(countLL)" style="text;html=1;align=center;verticalAlign=middle;whiteSpace=wrap;rounded=0;" parent="1" vertex="1"><mxGeometry x="725" y="1152" width="105.42" height="30" as="geometry"/></mxCell><mxCell id="432" value="&lt;b&gt;alt&lt;/b&gt;" style="rounded=0;whiteSpace=wrap;html=1;" parent="1" vertex="1"><mxGeometry x="620" y="1206" width="52" height="22" as="geometry"/></mxCell><mxCell id="433" value="[countLL = 0]" style="text;html=1;align=center;verticalAlign=middle;whiteSpace=wrap;rounded=0;" parent="1" vertex="1"><mxGeometry x="619" y="1222" width="76" height="30" as="geometry"/></mxCell><mxCell id="438" value="" style="edgeStyle=elbowEdgeStyle;elbow=vertical;endArrow=classic;html=1;rounded=0;" parent="1" source="437" target="437" edge="1"><mxGeometry width="50" height="50" relative="1" as="geometry"><mxPoint x="-761.6633333333334" y="1444.038633648221" as="sourcePoint"/><mxPoint x="-715.83" y="1394.4282816214318" as="targetPoint"/></mxGeometry></mxCell><mxCell id="439" value="1.1.1.8.3: &lt;br&gt;getLastStopunLoadCount()&lt;br&gt;returns(countLU)" style="text;html=1;align=center;verticalAlign=middle;whiteSpace=wrap;rounded=0;" parent="1" vertex="1"><mxGeometry x="725" y="1213" width="105.42" height="30" as="geometry"/></mxCell><mxCell id="437" value="" style="html=1;points=[];perimeter=orthogonalPerimeter;outlineConnect=0;targetShapes=umlLifeline;portConstraint=eastwest;newEdgeStyle={&quot;edgeStyle&quot;:&quot;elbowEdgeStyle&quot;,&quot;elbow&quot;:&quot;vertical&quot;,&quot;curved&quot;:0,&quot;rounded&quot;:0};rounded=0;" parent="1" vertex="1"><mxGeometry x="695" y="1233.998691733675" width="9.166666666666666" height="30.231308266324877" as="geometry"/></mxCell><mxCell id="440" value="&lt;b&gt;alt&lt;/b&gt;" style="rounded=0;whiteSpace=wrap;html=1;" parent="1" vertex="1"><mxGeometry x="622" y="1271" width="52" height="22" as="geometry"/></mxCell><mxCell id="452" value="&lt;b&gt;alt&lt;/b&gt;" style="rounded=0;whiteSpace=wrap;html=1;" parent="1" vertex="1"><mxGeometry x="631" y="1338" width="52" height="22" as="geometry"/></mxCell><mxCell id="467" value="1.1.1.8.7:&lt;br&gt;updateItemOrder()" style="html=1;verticalAlign=bottom;endArrow=block;edgeStyle=elbowEdgeStyle;elbow=vertical;curved=0;rounded=0;" parent="1" source="411" target="455" edge="1"><mxGeometry x="-0.0127" relative="1" as="geometry"><mxPoint x="535.0000000000002" y="1100" as="sourcePoint"/><Array as="points"><mxPoint x="1010" y="1520"/><mxPoint x="640" y="1100"/><mxPoint x="770" y="700"/><mxPoint x="760" y="710"/><mxPoint x="740" y="810"/><mxPoint x="680" y="800"/><mxPoint x="690" y="850"/><mxPoint x="720" y="830"/><mxPoint x="790" y="890"/><mxPoint x="670" y="820"/><mxPoint x="690" y="780"/><mxPoint x="650" y="760"/><mxPoint x="690" y="740"/><mxPoint x="590" y="830"/><mxPoint x="920" y="820"/><mxPoint x="770" y="820"/><mxPoint x="660" y="800"/><mxPoint x="630" y="735.5633802816902"/><mxPoint x="650" y="735.5633802816902"/><mxPoint x="650" y="747.1830985915494"/><mxPoint x="670" y="683.274647887324"/><mxPoint x="680" y="532.2183098591549"/><mxPoint x="700" y="520.5985915492959"/><mxPoint x="640" y="508.97887323943667"/><mxPoint x="680" y="497.3591549295775"/><mxPoint x="720" y="485.7394366197184"/><mxPoint x="630" y="439.2605633802817"/><mxPoint x="695" y="427.6408450704226"/></Array><mxPoint x="704.9999999999998" y="1100" as="targetPoint"/><mxPoint as="offset"/></mxGeometry></mxCell><mxCell id="468" value="return" style="html=1;verticalAlign=bottom;endArrow=open;dashed=1;endSize=8;edgeStyle=elbowEdgeStyle;elbow=vertical;curved=0;rounded=0;" parent="1" source="455" target="411" edge="1"><mxGeometry x="-0.0886" relative="1" as="geometry"><mxPoint x="535" y="970" as="targetPoint"/><Array as="points"><mxPoint x="1030" y="1550"/><mxPoint x="770" y="1030"/><mxPoint x="760" y="1020"/><mxPoint x="580" y="810"/><mxPoint x="510" y="770"/><mxPoint x="398" y="804"/><mxPoint x="368" y="784"/><mxPoint x="418" y="754"/><mxPoint x="518" y="824"/><mxPoint x="378" y="774"/><mxPoint x="408" y="729"/><mxPoint x="428" y="599"/><mxPoint x="438" y="599"/><mxPoint x="368" y="579.47"/><mxPoint x="413" y="539.47"/><mxPoint x="433" y="549.47"/></Array><mxPoint x="930" y="970" as="sourcePoint"/><mxPoint as="offset"/></mxGeometry></mxCell><mxCell id="469" value="" style="edgeStyle=elbowEdgeStyle;elbow=vertical;endArrow=classic;html=1;rounded=0;" parent="1" source="471" target="471" edge="1"><mxGeometry width="50" height="50" relative="1" as="geometry"><mxPoint x="-2710.6633333333334" y="1739.038633648221" as="sourcePoint"/><mxPoint x="-2664.83" y="1689.4282816214318" as="targetPoint"/></mxGeometry></mxCell><mxCell id="470" value="1.1.1.8.8: &lt;br&gt;setStatus(approved)" style="text;html=1;align=center;verticalAlign=middle;whiteSpace=wrap;rounded=0;" parent="1" vertex="1"><mxGeometry x="727" y="1563" width="105.42" height="30" as="geometry"/></mxCell><mxCell id="471" value="" style="html=1;points=[];perimeter=orthogonalPerimeter;outlineConnect=0;targetShapes=umlLifeline;portConstraint=eastwest;newEdgeStyle={&quot;edgeStyle&quot;:&quot;elbowEdgeStyle&quot;,&quot;elbow&quot;:&quot;vertical&quot;,&quot;curved&quot;:0,&quot;rounded&quot;:0};rounded=0;" parent="1" vertex="1"><mxGeometry x="696" y="1588.998691733675" width="9.166666666666666" height="30.231308266324877" as="geometry"/></mxCell><mxCell id="472" value="return" style="html=1;verticalAlign=bottom;endArrow=open;dashed=1;endSize=8;edgeStyle=elbowEdgeStyle;elbow=vertical;curved=0;rounded=0;" parent="1" source="411" target="17" edge="1"><mxGeometry x="0.4706" relative="1" as="geometry"><mxPoint x="714.9999999999998" y="1560" as="targetPoint"/><Array as="points"><mxPoint x="660" y="1630"/><mxPoint x="610" y="1650"/><mxPoint x="690" y="1640"/><mxPoint x="780" y="1040"/><mxPoint x="770" y="1030"/><mxPoint x="590" y="820"/><mxPoint x="520" y="780"/><mxPoint x="408" y="814"/><mxPoint x="378" y="794"/><mxPoint x="428" y="764"/><mxPoint x="528" y="834"/><mxPoint x="388" y="784"/><mxPoint x="418" y="739"/><mxPoint x="438" y="609"/><mxPoint x="448" y="609"/><mxPoint x="378" y="589.47"/><mxPoint x="423" y="549.47"/><mxPoint x="443" y="559.47"/></Array><mxPoint x="1400" y="1559" as="sourcePoint"/><mxPoint as="offset"/></mxGeometry></mxCell><mxCell id="473" value="[!matching]" style="text;html=1;align=center;verticalAlign=middle;whiteSpace=wrap;rounded=0;" parent="1" vertex="1"><mxGeometry x="717" y="1669" width="76" height="30" as="geometry"/></mxCell><mxCell id="476" value="return(error)" style="html=1;verticalAlign=bottom;endArrow=open;dashed=1;endSize=8;edgeStyle=elbowEdgeStyle;elbow=vertical;curved=0;rounded=0;" parent="1" source="411" target="11" edge="1"><mxGeometry x="-0.3506" relative="1" as="geometry"><mxPoint x="535" y="1660" as="targetPoint"/><Array as="points"><mxPoint x="540" y="1680"/><mxPoint x="650" y="1690"/><mxPoint x="640" y="1680"/><mxPoint x="630" y="1690"/><mxPoint x="650" y="1690"/><mxPoint x="570" y="1710"/><mxPoint x="620" y="1660"/><mxPoint x="700" y="1650"/><mxPoint x="790" y="1050"/><mxPoint x="780" y="1040"/><mxPoint x="600" y="830"/><mxPoint x="530" y="790"/><mxPoint x="418" y="824"/><mxPoint x="388" y="804"/><mxPoint x="438" y="774"/><mxPoint x="538" y="844"/><mxPoint x="398" y="794"/><mxPoint x="428" y="749"/><mxPoint x="448" y="619"/><mxPoint x="458" y="619"/><mxPoint x="388" y="599.47"/><mxPoint x="433" y="559.47"/><mxPoint x="453" y="569.47"/></Array><mxPoint x="705" y="1660" as="sourcePoint"/><mxPoint as="offset"/></mxGeometry></mxCell><mxCell id="477" value="return(error)" style="html=1;verticalAlign=bottom;endArrow=open;dashed=1;endSize=8;edgeStyle=elbowEdgeStyle;elbow=vertical;curved=0;rounded=0;" parent="1" source="411" target="11" edge="1"><mxGeometry x="-0.3421" relative="1" as="geometry"><mxPoint x="319.66666666666674" y="1700" as="targetPoint"/><Array as="points"><mxPoint x="540" y="1710"/><mxPoint x="500" y="1720"/><mxPoint x="560" y="1730"/><mxPoint x="660" y="1700"/><mxPoint x="580" y="1720"/><mxPoint x="630" y="1670"/><mxPoint x="710" y="1660"/><mxPoint x="800" y="1060"/><mxPoint x="790" y="1050"/><mxPoint x="610" y="840"/><mxPoint x="540" y="800"/><mxPoint x="428" y="834"/><mxPoint x="398" y="814"/><mxPoint x="448" y="784"/><mxPoint x="548" y="854"/><mxPoint x="408" y="804"/><mxPoint x="438" y="759"/><mxPoint x="458" y="629"/><mxPoint x="468" y="629"/><mxPoint x="398" y="609.47"/><mxPoint x="443" y="569.47"/><mxPoint x="463" y="579.47"/></Array><mxPoint x="705" y="1700" as="sourcePoint"/><mxPoint as="offset"/></mxGeometry></mxCell><mxCell id="478" value="[countLU &amp;lt;= 0]" style="text;html=1;align=center;verticalAlign=middle;whiteSpace=wrap;rounded=0;" parent="1" vertex="1"><mxGeometry x="724" y="1694" width="83" height="30" as="geometry"/></mxCell><mxCell id="480" value="[countLL != 0]" style="text;html=1;align=center;verticalAlign=middle;whiteSpace=wrap;rounded=0;" parent="1" vertex="1"><mxGeometry x="717" y="1724" width="90" height="30" as="geometry"/></mxCell><mxCell id="481" value="" style="endArrow=none;dashed=1;html=1;dashPattern=1 3;strokeWidth=2;rounded=0;exitX=0;exitY=0.964;exitDx=0;exitDy=0;exitPerimeter=0;" parent="1" source="431" edge="1"><mxGeometry width="50" height="50" relative="1" as="geometry"><mxPoint x="633.616" y="1717.968" as="sourcePoint"/><mxPoint x="1440" y="1730" as="targetPoint"/></mxGeometry></mxCell><mxCell id="482" value="return(error)" style="html=1;verticalAlign=bottom;endArrow=open;dashed=1;endSize=8;edgeStyle=elbowEdgeStyle;elbow=vertical;curved=0;rounded=0;" parent="1" source="411" target="11" edge="1"><mxGeometry x="-0.3421" relative="1" as="geometry"><mxPoint x="325" y="1730" as="targetPoint"/><Array as="points"><mxPoint x="670" y="1740"/><mxPoint x="370" y="1760"/><mxPoint x="640" y="1760"/><mxPoint x="510" y="1730"/><mxPoint x="570" y="1740"/><mxPoint x="670" y="1710"/><mxPoint x="590" y="1730"/><mxPoint x="640" y="1680"/><mxPoint x="720" y="1670"/><mxPoint x="810" y="1070"/><mxPoint x="800" y="1060"/><mxPoint x="620" y="850"/><mxPoint x="550" y="810"/><mxPoint x="438" y="844"/><mxPoint x="408" y="824"/><mxPoint x="458" y="794"/><mxPoint x="558" y="864"/><mxPoint x="418" y="814"/><mxPoint x="448" y="769"/><mxPoint x="468" y="639"/><mxPoint x="478" y="639"/><mxPoint x="408" y="619.47"/><mxPoint x="453" y="579.47"/><mxPoint x="473" y="589.47"/></Array><mxPoint x="705" y="1730" as="sourcePoint"/><mxPoint as="offset"/></mxGeometry></mxCell><mxCell id="484" value="" style="endArrow=none;dashed=1;html=1;dashPattern=1 3;strokeWidth=2;rounded=0;entryX=0.999;entryY=0.939;entryDx=0;entryDy=0;entryPerimeter=0;" parent="1" target="456" edge="1"><mxGeometry width="50" height="50" relative="1" as="geometry"><mxPoint x="640" y="1644" as="sourcePoint"/><mxPoint x="1408" y="1640" as="targetPoint"/></mxGeometry></mxCell><mxCell id="485" value="[!empty]" style="text;html=1;align=center;verticalAlign=middle;whiteSpace=wrap;rounded=0;" parent="1" vertex="1"><mxGeometry x="709" y="1636" width="76" height="30" as="geometry"/></mxCell><mxCell id="486" value="return(error)" style="html=1;verticalAlign=bottom;endArrow=open;dashed=1;endSize=8;edgeStyle=elbowEdgeStyle;elbow=vertical;curved=0;rounded=0;" parent="1" edge="1"><mxGeometry x="-0.3421" relative="1" as="geometry"><mxPoint x="315" y="1650" as="targetPoint"/><Array as="points"><mxPoint x="570" y="1650"/><mxPoint x="660" y="1700"/><mxPoint x="580" y="1720"/><mxPoint x="630" y="1670"/><mxPoint x="710" y="1660"/><mxPoint x="800" y="1060"/><mxPoint x="790" y="1050"/><mxPoint x="610" y="840"/><mxPoint x="540" y="800"/><mxPoint x="428" y="834"/><mxPoint x="398" y="814"/><mxPoint x="448" y="784"/><mxPoint x="548" y="854"/><mxPoint x="408" y="804"/><mxPoint x="438" y="759"/><mxPoint x="458" y="629"/><mxPoint x="468" y="629"/><mxPoint x="398" y="609.47"/><mxPoint x="443" y="569.47"/><mxPoint x="463" y="579.47"/></Array><mxPoint x="695" y="1650" as="sourcePoint"/><mxPoint as="offset"/></mxGeometry></mxCell><mxCell id="488" value="[countS != 0]" style="text;html=1;align=center;verticalAlign=middle;whiteSpace=wrap;rounded=0;" parent="1" vertex="1"><mxGeometry x="714" y="1752" width="90" height="30" as="geometry"/></mxCell><mxCell id="489" value="1.1.1.9:&lt;br&gt;setMaxWeight(weight)" style="html=1;verticalAlign=bottom;endArrow=block;edgeStyle=elbowEdgeStyle;elbow=vertical;curved=0;rounded=0;" parent="1" source="17" target="491" edge="1"><mxGeometry x="-0.0127" relative="1" as="geometry"><mxPoint x="535" y="1100" as="sourcePoint"/><Array as="points"><mxPoint x="590" y="1810"/><mxPoint x="600" y="1800"/><mxPoint x="590" y="1830"/><mxPoint x="640" y="1100"/><mxPoint x="770" y="700"/><mxPoint x="760" y="710"/><mxPoint x="740" y="810"/><mxPoint x="680" y="800"/><mxPoint x="690" y="850"/><mxPoint x="720" y="830"/><mxPoint x="790" y="890"/><mxPoint x="670" y="820"/><mxPoint x="690" y="780"/><mxPoint x="650" y="760"/><mxPoint x="690" y="740"/><mxPoint x="590" y="830"/><mxPoint x="920" y="820"/><mxPoint x="770" y="820"/><mxPoint x="660" y="800"/><mxPoint x="630" y="735.5633802816902"/><mxPoint x="650" y="735.5633802816902"/><mxPoint x="650" y="747.1830985915494"/><mxPoint x="670" y="683.274647887324"/><mxPoint x="680" y="532.2183098591549"/><mxPoint x="700" y="520.5985915492959"/><mxPoint x="640" y="508.97887323943667"/><mxPoint x="680" y="497.3591549295775"/><mxPoint x="720" y="485.7394366197184"/><mxPoint x="630" y="439.2605633802817"/><mxPoint x="695" y="427.6408450704226"/></Array><mxPoint x="705" y="1100" as="targetPoint"/><mxPoint as="offset"/></mxGeometry></mxCell><mxCell id="490" value="return(error)" style="html=1;verticalAlign=bottom;endArrow=open;dashed=1;endSize=8;edgeStyle=elbowEdgeStyle;elbow=vertical;curved=0;rounded=0;" parent="1" source="411" target="11" edge="1"><mxGeometry x="-0.3421" relative="1" as="geometry"><mxPoint x="325" y="1750" as="targetPoint"/><Array as="points"><mxPoint x="530" y="1770"/><mxPoint x="680" y="1750"/><mxPoint x="380" y="1770"/><mxPoint x="650" y="1770"/><mxPoint x="520" y="1740"/><mxPoint x="580" y="1750"/><mxPoint x="680" y="1720"/><mxPoint x="600" y="1740"/><mxPoint x="650" y="1690"/><mxPoint x="730" y="1680"/><mxPoint x="820" y="1080"/><mxPoint x="810" y="1070"/><mxPoint x="630" y="860"/><mxPoint x="560" y="820"/><mxPoint x="448" y="854"/><mxPoint x="418" y="834"/><mxPoint x="468" y="804"/><mxPoint x="568" y="874"/><mxPoint x="428" y="824"/><mxPoint x="458" y="779"/><mxPoint x="478" y="649"/><mxPoint x="488" y="649"/><mxPoint x="418" y="629.47"/><mxPoint x="463" y="589.47"/><mxPoint x="483" y="599.47"/></Array><mxPoint x="705" y="1750" as="sourcePoint"/><mxPoint as="offset"/></mxGeometry></mxCell><mxCell id="492" value="return" style="html=1;verticalAlign=bottom;endArrow=open;dashed=1;endSize=8;edgeStyle=elbowEdgeStyle;elbow=vertical;curved=0;rounded=0;" parent="1" source="491" target="17" edge="1"><mxGeometry relative="1" as="geometry"><mxPoint x="185" y="1860" as="targetPoint"/><Array as="points"><mxPoint x="580" y="1840"/><mxPoint x="260" y="1860"/><mxPoint x="220" y="430"/><mxPoint x="210" y="290"/></Array><mxPoint x="315" y="1860" as="sourcePoint"/></mxGeometry></mxCell><mxCell id="494" value="1.1.1.10:&lt;br&gt;addTruckDeliveryDate(id,weight)" style="html=1;verticalAlign=bottom;endArrow=block;edgeStyle=elbowEdgeStyle;elbow=vertical;curved=0;rounded=0;" parent="1" source="17" target="493" edge="1"><mxGeometry x="0.3418" relative="1" as="geometry"><mxPoint x="535" y="1820" as="sourcePoint"/><Array as="points"><mxPoint x="620" y="1850"/><mxPoint x="600" y="1820"/><mxPoint x="610" y="1810"/><mxPoint x="600" y="1840"/><mxPoint x="650" y="1110"/><mxPoint x="780" y="710"/><mxPoint x="770" y="720"/><mxPoint x="750" y="820"/><mxPoint x="690" y="810"/><mxPoint x="700" y="860"/><mxPoint x="730" y="840"/><mxPoint x="800" y="900"/><mxPoint x="680" y="830"/><mxPoint x="700" y="790"/><mxPoint x="660" y="770"/><mxPoint x="700" y="750"/><mxPoint x="600" y="840"/><mxPoint x="930" y="830"/><mxPoint x="780" y="830"/><mxPoint x="670" y="810"/><mxPoint x="640" y="745.5633802816902"/><mxPoint x="660" y="745.5633802816902"/><mxPoint x="660" y="757.1830985915494"/><mxPoint x="680" y="693.274647887324"/><mxPoint x="690" y="542.2183098591549"/><mxPoint x="710" y="530.5985915492959"/><mxPoint x="650" y="518.9788732394367"/><mxPoint x="690" y="507.3591549295775"/><mxPoint x="730" y="495.7394366197184"/><mxPoint x="640" y="449.2605633802817"/><mxPoint x="705" y="437.6408450704226"/></Array><mxPoint x="705.4200000000001" y="1820" as="targetPoint"/><mxPoint as="offset"/></mxGeometry></mxCell><mxCell id="502" value="&lt;b&gt;alt&lt;/b&gt;" style="rounded=0;whiteSpace=wrap;html=1;" parent="1" vertex="1"><mxGeometry x="823" y="1897" width="77" height="30" as="geometry"/></mxCell><mxCell id="136" value="" style="group;rounded=0;" parent="1" vertex="1" connectable="0"><mxGeometry x="870" y="20" width="205" height="2310" as="geometry"/></mxCell><mxCell id="18" value="ResourceController" style="shape=umlLifeline;perimeter=lifelinePerimeter;whiteSpace=wrap;html=1;container=0;dropTarget=0;collapsible=0;recursiveResize=0;outlineConnect=0;portConstraint=eastwest;newEdgeStyle={&quot;edgeStyle&quot;:&quot;elbowEdgeStyle&quot;,&quot;elbow&quot;:&quot;vertical&quot;,&quot;curved&quot;:0,&quot;rounded&quot;:0};rounded=0;" parent="136" vertex="1"><mxGeometry width="110" height="2310" as="geometry"/></mxCell><mxCell id="30" value="" style="html=1;points=[];perimeter=orthogonalPerimeter;outlineConnect=0;targetShapes=umlLifeline;portConstraint=eastwest;newEdgeStyle={&quot;edgeStyle&quot;:&quot;elbowEdgeStyle&quot;,&quot;elbow&quot;:&quot;vertical&quot;,&quot;curved&quot;:0,&quot;rounded&quot;:0};rounded=0;" parent="136" vertex="1"><mxGeometry x="50" y="650" width="10" height="390" as="geometry"/></mxCell><mxCell id="150" value="" style="html=1;points=[];perimeter=orthogonalPerimeter;outlineConnect=0;targetShapes=umlLifeline;portConstraint=eastwest;newEdgeStyle={&quot;edgeStyle&quot;:&quot;elbowEdgeStyle&quot;,&quot;elbow&quot;:&quot;vertical&quot;,&quot;curved&quot;:0,&quot;rounded&quot;:0};rounded=0;" parent="136" vertex="1"><mxGeometry x="50.83" y="699.9986917336752" width="9.166666666666666" height="30.231308266324877" as="geometry"/></mxCell><mxCell id="152" value="" style="edgeStyle=elbowEdgeStyle;elbow=vertical;endArrow=classic;html=1;rounded=0;" parent="136" source="150" target="150" edge="1"><mxGeometry width="50" height="50" relative="1" as="geometry"><mxPoint x="114.16666666666666" y="950.0386336482212" as="sourcePoint"/><mxPoint x="160" y="900.4282816214317" as="targetPoint"/></mxGeometry></mxCell><mxCell id="337" value="" style="html=1;points=[];perimeter=orthogonalPerimeter;outlineConnect=0;targetShapes=umlLifeline;portConstraint=eastwest;newEdgeStyle={&quot;edgeStyle&quot;:&quot;elbowEdgeStyle&quot;,&quot;elbow&quot;:&quot;vertical&quot;,&quot;curved&quot;:0,&quot;rounded&quot;:0};rounded=0;" parent="136" vertex="1"><mxGeometry x="50.83000000000004" y="849.9986917336752" width="9.166666666666666" height="30.231308266324877" as="geometry"/></mxCell><mxCell id="340" value="" style="edgeStyle=elbowEdgeStyle;elbow=vertical;endArrow=classic;html=1;rounded=0;" parent="136" source="337" target="337" edge="1"><mxGeometry width="50" height="50" relative="1" as="geometry"><mxPoint x="69.99666666666644" y="755.1143458668375" as="sourcePoint"/><mxPoint x="69.99666666666644" y="775.1143458668375" as="targetPoint"/></mxGeometry></mxCell><mxCell id="493" value="" style="html=1;points=[];perimeter=orthogonalPerimeter;outlineConnect=0;targetShapes=umlLifeline;portConstraint=eastwest;newEdgeStyle={&quot;edgeStyle&quot;:&quot;elbowEdgeStyle&quot;,&quot;elbow&quot;:&quot;vertical&quot;,&quot;curved&quot;:0,&quot;rounded&quot;:0};rounded=0;" parent="136" vertex="1"><mxGeometry x="50" y="1830" width="9.17" height="136" as="geometry"/></mxCell><mxCell id="498" value="" style="edgeStyle=elbowEdgeStyle;elbow=vertical;endArrow=classic;html=1;rounded=0;" parent="136" source="500" target="500" edge="1"><mxGeometry width="50" height="50" relative="1" as="geometry"><mxPoint x="-3355.8333333333335" y="1986.038633648221" as="sourcePoint"/><mxPoint x="-3310" y="1936.4282816214318" as="targetPoint"/></mxGeometry></mxCell><mxCell id="499" value="1.1.1.10.1: &lt;br&gt;getTruck(id)" style="text;html=1;align=center;verticalAlign=middle;whiteSpace=wrap;rounded=0;" parent="136" vertex="1"><mxGeometry x="81.83000000000004" y="1810" width="105.42" height="30" as="geometry"/></mxCell><mxCell id="500" value="" style="html=1;points=[];perimeter=orthogonalPerimeter;outlineConnect=0;targetShapes=umlLifeline;portConstraint=eastwest;newEdgeStyle={&quot;edgeStyle&quot;:&quot;elbowEdgeStyle&quot;,&quot;elbow&quot;:&quot;vertical&quot;,&quot;curved&quot;:0,&quot;rounded&quot;:0};rounded=0;" parent="136" vertex="1"><mxGeometry x="50.83000000000004" y="1835.998691733675" width="9.166666666666666" height="30.231308266324877" as="geometry"/></mxCell><mxCell id="512" value="" style="html=1;points=[];perimeter=orthogonalPerimeter;outlineConnect=0;targetShapes=umlLifeline;portConstraint=eastwest;newEdgeStyle={&quot;edgeStyle&quot;:&quot;elbowEdgeStyle&quot;,&quot;elbow&quot;:&quot;vertical&quot;,&quot;curved&quot;:0,&quot;rounded&quot;:0};rounded=0;" parent="136" vertex="1"><mxGeometry x="50" y="1980" width="9.17" height="30" as="geometry"/></mxCell><mxCell id="495" value="return" style="html=1;verticalAlign=bottom;endArrow=open;dashed=1;endSize=8;edgeStyle=elbowEdgeStyle;elbow=vertical;curved=0;rounded=0;" parent="1" source="493" target="17" edge="1"><mxGeometry x="-0.0886" relative="1" as="geometry"><mxPoint x="535" y="1850" as="targetPoint"/><Array as="points"><mxPoint x="800" y="1960"/><mxPoint x="770" y="1970"/><mxPoint x="800" y="1930"/><mxPoint x="790" y="1880"/><mxPoint x="590" y="1850"/><mxPoint x="270" y="1870"/><mxPoint x="230" y="440"/><mxPoint x="220" y="300"/></Array><mxPoint x="705.4200000000001" y="1850" as="sourcePoint"/><mxPoint as="offset"/></mxGeometry></mxCell><mxCell id="503" value="[truck != null]" style="text;html=1;align=center;verticalAlign=middle;whiteSpace=wrap;rounded=0;" parent="1" vertex="1"><mxGeometry x="824" y="1922" width="76" height="30" as="geometry"/></mxCell><mxCell id="504" value="1.1.1.10.2:&lt;br&gt;addDeliveryDate(date)" style="html=1;verticalAlign=bottom;endArrow=block;edgeStyle=elbowEdgeStyle;elbow=vertical;curved=0;rounded=0;" parent="1" edge="1"><mxGeometry x="0.2607" y="-21" relative="1" as="geometry"><mxPoint x="929.1700000000001" y="1909" as="sourcePoint"/><Array as="points"><mxPoint x="1080" y="1909"/><mxPoint x="630" y="1839"/><mxPoint x="610" y="1809"/><mxPoint x="620" y="1799"/><mxPoint x="610" y="1829"/><mxPoint x="660" y="1099"/><mxPoint x="790" y="699"/><mxPoint x="780" y="709"/><mxPoint x="760" y="809"/><mxPoint x="700" y="799"/><mxPoint x="710" y="849"/><mxPoint x="740" y="829"/><mxPoint x="810" y="889"/><mxPoint x="690" y="819"/><mxPoint x="710" y="779"/><mxPoint x="670" y="759"/><mxPoint x="710" y="739"/><mxPoint x="610" y="829"/><mxPoint x="940" y="819"/><mxPoint x="790" y="819"/><mxPoint x="680" y="799"/><mxPoint x="650" y="734.5633802816902"/><mxPoint x="670" y="734.5633802816902"/><mxPoint x="670" y="746.1830985915494"/><mxPoint x="690" y="682.274647887324"/><mxPoint x="700" y="531.2183098591549"/><mxPoint x="720" y="519.5985915492959"/><mxPoint x="660" y="507.97887323943667"/><mxPoint x="700" y="496.35915492957747"/><mxPoint x="740" y="484.7394366197184"/><mxPoint x="650" y="438.2605633802817"/><mxPoint x="715" y="426.6408450704226"/></Array><mxPoint x="1279.5" y="1909" as="targetPoint"/><mxPoint as="offset"/></mxGeometry></mxCell><mxCell id="506" value="return" style="html=1;verticalAlign=bottom;endArrow=open;dashed=1;endSize=8;edgeStyle=elbowEdgeStyle;elbow=vertical;curved=0;rounded=0;" parent="1" source="505" target="493" edge="1"><mxGeometry x="0.5418" relative="1" as="geometry"><mxPoint x="929.1700000000001" y="1938" as="targetPoint"/><Array as="points"><mxPoint x="1260" y="1930"/><mxPoint x="990" y="1938"/><mxPoint x="780" y="1968"/><mxPoint x="810" y="1928"/><mxPoint x="800" y="1878"/><mxPoint x="600" y="1848"/><mxPoint x="280" y="1868"/><mxPoint x="240" y="438"/><mxPoint x="230" y="298"/></Array><mxPoint x="1280" y="1916" as="sourcePoint"/><mxPoint as="offset"/></mxGeometry></mxCell><mxCell id="508" value="return(error)" style="html=1;verticalAlign=bottom;endArrow=open;dashed=1;endSize=8;edgeStyle=elbowEdgeStyle;elbow=vertical;curved=0;rounded=0;" parent="1" edge="1"><mxGeometry x="-0.405" relative="1" as="geometry"><mxPoint x="315" y="1985" as="targetPoint"/><Array as="points"><mxPoint x="331" y="1985"/><mxPoint x="390" y="1880"/><mxPoint x="540" y="1780"/><mxPoint x="690" y="1760"/><mxPoint x="390" y="1780"/><mxPoint x="660" y="1780"/><mxPoint x="530" y="1750"/><mxPoint x="590" y="1760"/><mxPoint x="690" y="1730"/><mxPoint x="610" y="1750"/><mxPoint x="660" y="1700"/><mxPoint x="740" y="1690"/><mxPoint x="830" y="1090"/><mxPoint x="820" y="1080"/><mxPoint x="640" y="870"/><mxPoint x="570" y="830"/><mxPoint x="458" y="864"/><mxPoint x="428" y="844"/><mxPoint x="478" y="814"/><mxPoint x="578" y="884"/><mxPoint x="438" y="834"/><mxPoint x="468" y="789"/><mxPoint x="488" y="659"/><mxPoint x="498" y="659"/><mxPoint x="428" y="639.47"/><mxPoint x="473" y="599.47"/><mxPoint x="493" y="609.47"/></Array><mxPoint x="920" y="1985" as="sourcePoint"/><mxPoint as="offset"/></mxGeometry></mxCell><mxCell id="511" value="1.1.1.11:&lt;br&gt;getEmployeeController()" style="html=1;verticalAlign=bottom;endArrow=block;edgeStyle=elbowEdgeStyle;elbow=vertical;curved=0;rounded=0;" parent="1" source="17" target="512" edge="1"><mxGeometry x="0.443" y="-30" relative="1" as="geometry"><mxPoint x="535" y="1860" as="sourcePoint"/><Array as="points"><mxPoint x="720" y="2000"/><mxPoint x="630" y="1860"/><mxPoint x="610" y="1830"/><mxPoint x="620" y="1820"/><mxPoint x="610" y="1850"/><mxPoint x="660" y="1120"/><mxPoint x="790" y="720"/><mxPoint x="780" y="730"/><mxPoint x="760" y="830"/><mxPoint x="700" y="820"/><mxPoint x="710" y="870"/><mxPoint x="740" y="850"/><mxPoint x="810" y="910"/><mxPoint x="690" y="840"/><mxPoint x="710" y="800"/><mxPoint x="670" y="780"/><mxPoint x="710" y="760"/><mxPoint x="610" y="850"/><mxPoint x="940" y="840"/><mxPoint x="790" y="840"/><mxPoint x="680" y="820"/><mxPoint x="650" y="755.5633802816902"/><mxPoint x="670" y="755.5633802816902"/><mxPoint x="670" y="767.1830985915494"/><mxPoint x="690" y="703.274647887324"/><mxPoint x="700" y="552.2183098591549"/><mxPoint x="720" y="540.5985915492959"/><mxPoint x="660" y="528.9788732394367"/><mxPoint x="700" y="517.3591549295775"/><mxPoint x="740" y="505.7394366197184"/><mxPoint x="650" y="459.2605633802817"/><mxPoint x="715" y="447.6408450704226"/></Array><mxPoint x="930" y="1860" as="targetPoint"/><mxPoint as="offset"/></mxGeometry></mxCell><mxCell id="513" value="return" style="html=1;verticalAlign=bottom;endArrow=open;dashed=1;endSize=8;edgeStyle=elbowEdgeStyle;elbow=vertical;curved=0;rounded=0;" parent="1" source="512" target="17" edge="1"><mxGeometry x="0.2152" relative="1" as="geometry"><mxPoint x="535" y="1970" as="targetPoint"/><Array as="points"><mxPoint x="650" y="2030"/><mxPoint x="810" y="1970"/><mxPoint x="780" y="1980"/><mxPoint x="810" y="1940"/><mxPoint x="800" y="1890"/><mxPoint x="600" y="1860"/><mxPoint x="280" y="1880"/><mxPoint x="240" y="450"/><mxPoint x="230" y="310"/></Array><mxPoint x="930" y="1970" as="sourcePoint"/><mxPoint as="offset"/></mxGeometry></mxCell><mxCell id="514" value="1.1.1.12:&lt;br&gt;addDriverDeliveryDate(driverId,date)" style="html=1;verticalAlign=bottom;endArrow=block;edgeStyle=elbowEdgeStyle;elbow=vertical;curved=0;rounded=0;" parent="1" edge="1"><mxGeometry x="0.0837" y="-30" relative="1" as="geometry"><mxPoint x="525" y="2036" as="sourcePoint"/><Array as="points"><mxPoint x="680" y="2036"/><mxPoint x="620.0045614035088" y="2046.4299999999998"/><mxPoint x="730" y="2056"/><mxPoint x="640" y="1916"/><mxPoint x="620" y="1886"/><mxPoint x="630" y="1876"/><mxPoint x="620" y="1906"/><mxPoint x="670" y="1176"/><mxPoint x="800" y="776"/><mxPoint x="790" y="786"/><mxPoint x="770" y="886"/><mxPoint x="710" y="876"/><mxPoint x="720" y="926"/><mxPoint x="750" y="906"/><mxPoint x="820" y="966"/><mxPoint x="700" y="896"/><mxPoint x="720" y="856"/><mxPoint x="680" y="836"/><mxPoint x="720" y="816"/><mxPoint x="620" y="906"/><mxPoint x="950" y="896"/><mxPoint x="800" y="896"/><mxPoint x="690" y="876"/><mxPoint x="660" y="811.5633802816902"/><mxPoint x="680" y="811.5633802816902"/><mxPoint x="680" y="823.1830985915494"/><mxPoint x="700" y="759.274647887324"/><mxPoint x="710" y="608.2183098591549"/><mxPoint x="730" y="596.5985915492959"/><mxPoint x="670" y="584.9788732394367"/><mxPoint x="710" y="573.3591549295775"/><mxPoint x="750" y="561.7394366197184"/><mxPoint x="660" y="515.2605633802817"/><mxPoint x="725" y="503.6408450704226"/></Array><mxPoint x="1051" y="2036" as="targetPoint"/><mxPoint as="offset"/></mxGeometry></mxCell><mxCell id="517" value="return" style="html=1;verticalAlign=bottom;endArrow=open;dashed=1;endSize=8;edgeStyle=elbowEdgeStyle;elbow=vertical;curved=0;rounded=0;" parent="1" source="515" target="17" edge="1"><mxGeometry x="-0.8821" relative="1" as="geometry"><mxPoint x="535" y="2040" as="targetPoint"/><Array as="points"><mxPoint x="690" y="2070"/><mxPoint x="660" y="2040"/><mxPoint x="820" y="1980"/><mxPoint x="790" y="1990"/><mxPoint x="820" y="1950"/><mxPoint x="810" y="1900"/><mxPoint x="610" y="1870"/><mxPoint x="290" y="1890"/><mxPoint x="250" y="460"/><mxPoint x="240" y="320"/></Array><mxPoint x="930" y="2040" as="sourcePoint"/><mxPoint as="offset"/></mxGeometry></mxCell><mxCell id="520" value="" style="endArrow=none;dashed=1;html=1;dashPattern=1 3;strokeWidth=2;rounded=0;exitX=0.999;exitY=0.863;exitDx=0;exitDy=0;exitPerimeter=0;" parent="1" edge="1"><mxGeometry width="50" height="50" relative="1" as="geometry"><mxPoint x="823.5929900000001" y="610.77628" as="sourcePoint"/><mxPoint x="418" y="611" as="targetPoint"/><Array as="points"/></mxGeometry></mxCell><mxCell id="352" value="[!tAvailable]" style="text;html=1;align=center;verticalAlign=middle;whiteSpace=wrap;rounded=0;" parent="1" vertex="1"><mxGeometry x="968.9996" y="971.0015254237287" width="56.03039999999999" height="15.73694915254237" as="geometry"/></mxCell><mxCell id="527" value="return" style="html=1;verticalAlign=bottom;endArrow=open;dashed=1;endSize=8;edgeStyle=elbowEdgeStyle;elbow=vertical;curved=0;rounded=0;" parent="1" source="17" target="11" edge="1"><mxGeometry x="-0.45" relative="1" as="geometry"><mxPoint x="535" y="2130" as="targetPoint"/><Array as="points"><mxPoint x="440" y="2140"/><mxPoint x="1380" y="2130"/><mxPoint x="670" y="2050"/><mxPoint x="830" y="1990"/><mxPoint x="800" y="2000"/><mxPoint x="830" y="1960"/><mxPoint x="820" y="1910"/><mxPoint x="620" y="1880"/><mxPoint x="300" y="1900"/><mxPoint x="260" y="470"/><mxPoint x="250" y="330"/></Array><mxPoint x="1505.9999999999995" y="2130" as="sourcePoint"/><mxPoint as="offset"/></mxGeometry></mxCell><mxCell id="532" value="return(error)" style="html=1;verticalAlign=bottom;endArrow=open;dashed=1;endSize=8;edgeStyle=elbowEdgeStyle;elbow=vertical;curved=0;rounded=0;" parent="1" source="17" target="10" edge="1"><mxGeometry x="-0.4632" relative="1" as="geometry"><mxPoint x="325" y="2150" as="targetPoint"/><Array as="points"><mxPoint x="410" y="2170"/><mxPoint x="450" y="2150"/><mxPoint x="1390" y="2140"/><mxPoint x="680" y="2060"/><mxPoint x="840" y="2000"/><mxPoint x="810" y="2010"/><mxPoint x="840" y="1970"/><mxPoint x="830" y="1920"/><mxPoint x="630" y="1890"/><mxPoint x="310" y="1910"/><mxPoint x="270" y="480"/><mxPoint x="260" y="340"/></Array><mxPoint x="525" y="2150" as="sourcePoint"/><mxPoint as="offset"/></mxGeometry></mxCell><mxCell id="534" value="[count&amp;lt;0]" style="text;html=1;align=center;verticalAlign=middle;whiteSpace=wrap;rounded=0;" parent="1" vertex="1"><mxGeometry x="539.0016831683168" y="2190" width="110.42148514851485" height="34.55999999999999" as="geometry"/></mxCell><mxCell id="535" value="return(error)" style="html=1;verticalAlign=bottom;endArrow=open;dashed=1;endSize=8;edgeStyle=elbowEdgeStyle;elbow=vertical;curved=0;rounded=0;" parent="1" source="17" target="11" edge="1"><mxGeometry x="-0.45" relative="1" as="geometry"><mxPoint x="325" y="2150" as="targetPoint"/><Array as="points"><mxPoint x="340" y="2210"/><mxPoint x="450" y="2150"/><mxPoint x="1390" y="2140"/><mxPoint x="680" y="2060"/><mxPoint x="840" y="2000"/><mxPoint x="810" y="2010"/><mxPoint x="840" y="1970"/><mxPoint x="830" y="1920"/><mxPoint x="630" y="1890"/><mxPoint x="310" y="1910"/><mxPoint x="270" y="480"/><mxPoint x="260" y="340"/></Array><mxPoint x="525" y="2150" as="sourcePoint"/><mxPoint as="offset"/></mxGeometry></mxCell><mxCell id="536" value="[status != pending]" style="text;html=1;align=center;verticalAlign=middle;whiteSpace=wrap;rounded=0;" parent="1" vertex="1"><mxGeometry x="545" y="2236" width="110" height="23.04" as="geometry"/></mxCell><mxCell id="579" value="[delivery = null]" style="text;html=1;align=center;verticalAlign=middle;whiteSpace=wrap;rounded=0;" parent="1" vertex="1"><mxGeometry x="547" y="2276" width="90" height="30" as="geometry"/></mxCell><mxCell id="581" value="return(error)" style="html=1;verticalAlign=bottom;endArrow=open;dashed=1;endSize=8;edgeStyle=elbowEdgeStyle;elbow=vertical;curved=0;rounded=0;" parent="1" source="17" target="11" edge="1"><mxGeometry x="-0.45" relative="1" as="geometry"><mxPoint x="325" y="2220" as="targetPoint"/><Array as="points"><mxPoint x="370" y="2260"/><mxPoint x="350" y="2220"/><mxPoint x="460" y="2160"/><mxPoint x="1400" y="2150"/><mxPoint x="690" y="2070"/><mxPoint x="850" y="2010"/><mxPoint x="820" y="2020"/><mxPoint x="850" y="1980"/><mxPoint x="840" y="1930"/><mxPoint x="640" y="1900"/><mxPoint x="320" y="1920"/><mxPoint x="280" y="490"/><mxPoint x="270" y="350"/></Array><mxPoint x="525" y="2220" as="sourcePoint"/><mxPoint as="offset"/></mxGeometry></mxCell><mxCell id="582" value="return(error)" style="html=1;verticalAlign=bottom;endArrow=open;dashed=1;endSize=8;edgeStyle=elbowEdgeStyle;elbow=vertical;curved=0;rounded=0;" parent="1" source="17" target="11" edge="1"><mxGeometry x="-0.45" y="6" relative="1" as="geometry"><mxPoint x="325" y="2270" as="targetPoint"/><Array as="points"><mxPoint x="350" y="2290"/><mxPoint x="380" y="2270"/><mxPoint x="360" y="2230"/><mxPoint x="470" y="2170"/><mxPoint x="1410" y="2160"/><mxPoint x="700" y="2080"/><mxPoint x="860" y="2020"/><mxPoint x="830" y="2030"/><mxPoint x="860" y="1990"/><mxPoint x="850" y="1940"/><mxPoint x="650" y="1910"/><mxPoint x="330" y="1930"/><mxPoint x="290" y="500"/><mxPoint x="280" y="360"/></Array><mxPoint x="525" y="2270" as="sourcePoint"/><mxPoint as="offset"/></mxGeometry></mxCell><mxCell id="585" value="" style="html=1;points=[];perimeter=orthogonalPerimeter;outlineConnect=0;targetShapes=umlLifeline;portConstraint=eastwest;newEdgeStyle={&quot;edgeStyle&quot;:&quot;elbowEdgeStyle&quot;,&quot;elbow&quot;:&quot;vertical&quot;,&quot;curved&quot;:0,&quot;rounded&quot;:0};rounded=0;" parent="1" vertex="1"><mxGeometry x="515" y="150" width="10" height="20" as="geometry"/></mxCell><mxCell id="586" value="" style="html=1;points=[];perimeter=orthogonalPerimeter;outlineConnect=0;targetShapes=umlLifeline;portConstraint=eastwest;newEdgeStyle={&quot;edgeStyle&quot;:&quot;elbowEdgeStyle&quot;,&quot;elbow&quot;:&quot;vertical&quot;,&quot;curved&quot;:0,&quot;rounded&quot;:0};rounded=0;" parent="1" vertex="1"><mxGeometry x="695" y="1115" width="10" height="20" as="geometry"/></mxCell><mxCell id="587" value="" style="shape=flexArrow;endArrow=classic;html=1;rounded=0;" parent="1" edge="1"><mxGeometry width="50" height="50" relative="1" as="geometry"><mxPoint x="526" y="2116" as="sourcePoint"/><mxPoint x="1430" y="2115" as="targetPoint"/></mxGeometry></mxCell><mxCell id="597" value="Data Access Layer calls" style="rounded=0;whiteSpace=wrap;html=1;" parent="1" vertex="1"><mxGeometry x="1434" y="1923" width="74" height="60" as="geometry"/></mxCell><mxCell id="598" value="" style="shape=flexArrow;endArrow=classic;html=1;rounded=0;" parent="1" source="493" edge="1"><mxGeometry width="50" height="50" relative="1" as="geometry"><mxPoint x="1312" y="1955" as="sourcePoint"/><mxPoint x="1433.9999999999995" y="1954" as="targetPoint"/></mxGeometry></mxCell><mxCell id="606" value="&lt;b&gt;alt&lt;/b&gt;" style="rounded=0;whiteSpace=wrap;html=1;" parent="1" vertex="1"><mxGeometry x="931" y="2043" width="72" height="12" as="geometry"/></mxCell><mxCell id="614" value="return(error)" style="html=1;verticalAlign=bottom;endArrow=open;dashed=1;endSize=8;edgeStyle=elbowEdgeStyle;elbow=vertical;curved=0;rounded=0;" parent="1" source="515" edge="1"><mxGeometry x="0.6082" y="-1" relative="1" as="geometry"><mxPoint x="316" y="2091" as="targetPoint"/><Array as="points"><mxPoint x="332" y="2091"/><mxPoint x="391" y="1986"/><mxPoint x="541" y="1886"/><mxPoint x="691" y="1866"/><mxPoint x="391" y="1886"/><mxPoint x="661" y="1886"/><mxPoint x="531" y="1856"/><mxPoint x="591" y="1866"/><mxPoint x="691" y="1836"/><mxPoint x="611" y="1856"/><mxPoint x="661" y="1806"/><mxPoint x="741" y="1796"/><mxPoint x="831" y="1196"/><mxPoint x="821" y="1186"/><mxPoint x="641" y="976"/><mxPoint x="571" y="936"/><mxPoint x="459" y="970"/><mxPoint x="429" y="950"/><mxPoint x="479" y="920"/><mxPoint x="579" y="990"/><mxPoint x="439" y="940"/><mxPoint x="469" y="895"/><mxPoint x="489" y="765"/><mxPoint x="499" y="765"/><mxPoint x="429" y="745.47"/><mxPoint x="474" y="705.47"/><mxPoint x="494" y="715.47"/></Array><mxPoint x="1049" y="2088" as="sourcePoint"/><mxPoint as="offset"/></mxGeometry></mxCell></root></mxGraphModel></diagram></mxfile>